<svg width="73" height="83" xmlns="http://www.w3.org/2000/svg">

 <title>Artboard 54</title>
 <g class="currentLayer">
  <title>Layer 1</title>
  <path fill="#f9fcfc" id="svg_1" d="m71.96822,11.50064l0,0a7.38,7.38 0 0 0 -11.92,-1.22l-8.78,-5.07a4.41,4.41 0 0 0 -0.51,-3a4.45,4.45 0 0 0 -8.23,3l-10.44,6a5.54,5.54 0 1 0 -5.36,9.3l0,10.99a5.58,5.58 0 0 0 -3.88,6.68l-10.99,6.32a3.81,3.81 0 1 0 -3.78,6.54l0,8.62a9.56,9.56 0 1 0 8.92,15.45l8.15,4.71a3.08,3.08 0 0 0 0.4,1.61a3.09,3.09 0 0 0 5.79,-1.61l12.36,-7.12a4.79,4.79 0 0 0 2,1.08a4.87,4.87 0 0 0 1.26,0.17a4.82,4.82 0 0 0 1.45,-9.45l0,-9.3a7.76,7.76 0 0 0 5.87,-10.17l8.3,-4.79a4.46,4.46 0 0 0 1.91,1.06a4.55,4.55 0 0 0 1.17,0.16a4.49,4.49 0 0 0 1.44,-8.75l0,-10.21a7.38,7.38 0 0 0 4.87,-11zm-12.8,7.43a7.34,7.34 0 0 0 4.49,3.45l0.41,0.08l0,10.27a4.54,4.54 0 0 0 -0.7,0.32a4.49,4.49 0 0 0 -2.2,4.54l-8.39,4.84a7.78,7.78 0 0 0 -11.75,0l-7.21,-4.16a5.63,5.63 0 0 0 -4.09,-6.85l0,-10.84a5.53,5.53 0 0 0 3.88,-6.71l10.41,-6a4.47,4.47 0 0 0 2.88,1.06a4.43,4.43 0 0 0 2.22,-0.6a4.49,4.49 0 0 0 0.65,-0.47l8.78,5.07a7.37,7.37 0 0 0 0.62,6zm-33.14,-2.43a2.55,2.55 0 1 1 3.49,0.93a2.56,2.56 0 0 1 -3.49,-0.93zm-0.25,19.7a2.66,2.66 0 1 1 0.27,2a2.64,2.64 0 0 1 -0.27,-1.99l0,-0.01zm-12.92,38.6a6.56,6.56 0 1 1 -3.3,-12.25l0,0a6.6,6.6 0 0 1 1.68,0.22a6.56,6.56 0 0 1 1.58,12l0.04,0.03zm5,-10.46a9.5,9.5 0 0 0 -5.81,-4.46a9.72,9.72 0 0 0 -1,-0.21l0,-8.61a3.79,3.79 0 0 0 2.28,-3.95l10.92,-6.31a5.6,5.6 0 0 0 2.61,1.56a5.68,5.68 0 0 0 1.47,0.2a5.47,5.47 0 0 0 4,-1.68l7.16,4.16a7.78,7.78 0 0 0 5.4,10.05c0.17,0 0.35,0.07 0.52,0.1l0,9.31a4.79,4.79 0 0 0 -3.21,5.58l-12.36,7.16a3,3 0 0 0 -3.15,0l0,0l-8.2,-4.74a9.54,9.54 0 0 0 -0.63,-8.17l0,0.01zm30.82,5.25a1.83,1.83 0 1 1 -1.77,-2.3l0,0a1.83,1.83 0 0 1 1.77,2.3zm2.86,-20.79a4.8,4.8 0 1 1 -4.64,-6a4.84,4.84 0 0 1 1.25,0.17a4.77,4.77 0 0 1 2.91,2.24l0,0a4.76,4.76 0 0 1 0.48,3.59zm18.28,-32.43a4.39,4.39 0 1 1 -4.25,-5.53a4.41,4.41 0 0 1 1.14,0.15a4.39,4.39 0 0 1 3.11,5.38z"/>
 </g>
 <g>
  <title>Layer 2</title>
  <rect fill="none" y="0" x="0" height="100%" width="100%" id="backgroundrect"/>
 </g>
 <g>
  <title>background</title>
  <rect fill="none" id="canvas_background" height="602" width="802" y="-1" x="-1"/>
 </g>
</svg>