<?xml version="1.0" encoding="utf-8"?>
<!-- Generator: Adobe Illustrator 18.0.0, SVG Export Plug-In . SVG Version: 6.00 Build 0)  -->
<!DOCTYPE svg PUBLIC "-//W3C//DTD SVG 1.1//EN" "http://www.w3.org/Graphics/SVG/1.1/DTD/svg11.dtd">
<svg version="1.1" id="Logos" xmlns="http://www.w3.org/2000/svg" xmlns:xlink="http://www.w3.org/1999/xlink" x="0px" y="0px"
	 viewBox="37.4 358.1 107.8 129" style="enable-background:new 37.4 358.1 107.8 129;" xml:space="preserve">
<path style="fill:#FFFFFF;" d="M144.3,450.1c-0.6-1.1-1.6-1.9-2.6-2.5v0l-18.5-10.1c4.1-7.3,5.4-16.3,2.8-24.9
	c-5-17.2-23.1-27.1-40.3-22.1c-17.2,5-27.1,23.1-22.1,40.3c2.4,8.3,8,15.2,15.6,19.4c4.9,2.7,10.2,4,15.6,4c3.1,0,6.2-0.4,9.2-1.3
	c6.8-2,12.5-6.1,16.6-11.4l13.3,7.3l-40.5,23.4l-43-24.8v-49.6l43-24.8l41.9,24.2c3.1,1.8,7,0.7,8.8-2.4c1.8-3.1,0.7-7-2.4-8.8
	l-48.4-27.9l-55.9,32.2v64.5L93.2,487l48.7-28.1C145,457.1,146.1,453.2,144.3,450.1z M100.3,440.5c-5,1.5-10.3,0.9-14.9-1.6
	c-4.6-2.5-7.9-6.7-9.4-11.7c-3-10.4,2.9-21.3,13.3-24.4c1.8-0.5,3.7-0.8,5.5-0.8c8.5,0,16.3,5.6,18.8,14.1
	C116.7,426.5,110.7,437.5,100.3,440.5z"/>
</svg>
