<?xml version="1.0" standalone="no"?>
<!DOCTYPE svg PUBLIC "-//W3C//DTD SVG 20010904//EN"
 "http://www.w3.org/TR/2001/REC-SVG-20010904/DTD/svg10.dtd">
<svg version="1.0" xmlns="http://www.w3.org/2000/svg"
 width="1263.000000pt" height="1263.000000pt" viewBox="0 0 1263.000000 1263.000000"
 preserveAspectRatio="xMidYMid meet">
<metadata>
Created by potrace 1.14, written by Peter Selinger 2001-2017
</metadata>
<g transform="translate(0.000000,1263.000000) scale(0.100000,-0.100000)"
fill="#000000" stroke="none">
<path d="M6195 12563 c-114 -68 -409 -239 -541 -313 -19 -11 -104 -60 -187
-108 -84 -49 -271 -157 -417 -241 -271 -157 -304 -176 -520 -301 -69 -40 -138
-80 -155 -90 -115 -66 -311 -179 -424 -245 -74 -42 -150 -86 -168 -96 -18 -11
-50 -29 -70 -41 -21 -12 -76 -43 -123 -70 -47 -27 -101 -58 -120 -70 -49 -28
-427 -247 -472 -272 -20 -12 -98 -57 -174 -101 -145 -84 -165 -96 -284 -163
-41 -24 -91 -52 -110 -64 -270 -158 -412 -238 -420 -238 -5 0 -10 -4 -10 -9 0
-5 -6 -11 -13 -13 -9 -2 -420 -237 -557 -318 -29 -17 -265 -153 -310 -178 -25
-14 -61 -35 -80 -47 -19 -12 -62 -37 -95 -55 -33 -18 -68 -38 -77 -44 -17 -10
-18 -172 -18 -3168 l0 -3157 29 -20 c16 -12 31 -21 34 -21 3 0 78 -43 168 -95
89 -52 164 -95 166 -95 2 0 29 -16 59 -35 30 -19 56 -35 58 -35 3 0 37 -19 78
-43 40 -24 93 -55 118 -69 25 -14 61 -34 80 -45 19 -11 123 -71 230 -133 107
-62 232 -134 278 -161 45 -27 85 -49 89 -49 4 0 14 -6 22 -14 9 -8 39 -26 66
-40 28 -15 57 -31 65 -36 35 -21 238 -139 270 -157 19 -10 78 -44 130 -74 120
-71 562 -326 592 -342 13 -7 34 -20 48 -28 24 -16 544 -316 603 -348 16 -9 36
-20 46 -26 81 -48 279 -163 347 -201 28 -16 129 -74 223 -129 95 -55 189 -109
209 -121 20 -11 114 -65 207 -119 263 -152 406 -235 450 -260 51 -29 378 -217
555 -320 74 -43 146 -85 160 -92 14 -8 39 -22 56 -32 l31 -19 69 39 c38 22 76
44 84 49 72 45 312 180 320 180 5 0 10 5 10 10 0 6 4 10 9 10 4 0 158 87 342
193 480 278 1553 897 1622 936 18 10 94 55 171 100 76 44 140 81 141 81 2 0
36 19 77 43 62 37 415 241 513 297 17 10 143 82 280 162 138 79 281 162 318
184 38 21 83 47 100 58 49 28 826 477 1199 692 l208 119 0 3161 0 3162 -174
101 c-96 55 -189 109 -207 119 -19 10 -79 45 -134 77 -55 32 -318 184 -585
338 -267 154 -498 288 -515 298 -16 10 -41 24 -55 32 -14 7 -117 67 -230 132
-113 65 -320 185 -460 266 -140 81 -385 222 -545 314 -159 93 -303 176 -320
185 -16 10 -100 58 -185 107 -355 205 -511 295 -815 470 -176 102 -376 218
-445 258 -69 40 -201 116 -295 170 -93 54 -242 140 -331 191 -88 52 -165 94
-170 93 -5 0 -58 -30 -119 -66z m450 -2526 c143 -83 303 -175 355 -205 52 -30
111 -64 130 -75 19 -11 49 -28 65 -38 17 -10 53 -30 80 -45 28 -14 62 -35 77
-45 14 -11 28 -19 31 -19 2 0 77 -43 166 -95 90 -52 165 -95 167 -95 3 0 21
-11 42 -24 41 -26 339 -199 442 -256 36 -20 173 -100 305 -176 132 -77 247
-143 255 -147 8 -4 31 -17 50 -28 63 -38 544 -316 595 -344 28 -15 62 -36 77
-46 14 -11 29 -19 32 -19 3 0 34 -17 68 -38 143 -87 282 -118 413 -90 145 30
283 137 349 270 20 39 36 79 36 89 0 11 3 19 8 19 8 0 10 -4515 2 -4524 -3 -2
-18 20 -34 50 -56 107 -104 140 -531 374 -27 15 -144 79 -260 142 -115 64
-235 129 -265 145 -30 17 -149 82 -265 145 -115 64 -237 130 -270 148 -33 18
-61 34 -63 35 -1 1 19 47 47 101 94 189 177 419 205 564 2 14 11 57 19 95 8
39 21 111 28 160 18 120 18 544 0 645 -7 41 -15 89 -17 105 -63 404 -255 831
-521 1165 -99 124 -295 319 -413 410 -25 19 -47 37 -50 40 -3 4 -57 41 -120
82 -293 194 -603 320 -955 387 -87 17 -134 23 -280 37 -47 5 -336 4 -375 -1
-19 -2 -60 -7 -90 -10 -78 -9 -118 -14 -176 -26 -28 -5 -64 -12 -80 -15 -122
-22 -371 -105 -522 -175 -46 -22 -85 -39 -87 -39 -9 0 -213 -120 -275 -162
-189 -130 -409 -327 -525 -473 -22 -27 -42 -52 -45 -55 -3 -3 -26 -32 -51 -65
-73 -96 -131 -189 -227 -365 -93 -171 -208 -506 -238 -694 -3 -21 -8 -48 -10
-60 -2 -11 -7 -43 -10 -71 -3 -27 -9 -75 -14 -105 -9 -59 -6 -459 3 -500 4
-14 8 -47 11 -75 3 -27 7 -60 10 -71 2 -12 7 -39 10 -60 4 -22 9 -47 12 -56 3
-9 7 -25 9 -35 35 -171 122 -417 206 -584 132 -261 352 -555 540 -721 35 -31
80 -71 99 -88 101 -91 327 -239 495 -324 151 -76 396 -171 491 -190 10 -3 60
-13 109 -25 196 -44 314 -56 545 -56 161 0 298 8 360 20 23 5 43 8 110 19 145
24 377 94 530 159 184 78 405 205 530 304 169 133 311 268 423 400 79 94 70
93 175 34 37 -21 92 -51 122 -68 30 -17 75 -41 100 -55 25 -14 77 -42 115 -63
39 -21 88 -48 110 -60 22 -12 71 -39 108 -59 37 -20 84 -46 103 -57 20 -11 75
-41 122 -66 48 -25 102 -56 119 -68 l33 -22 -28 -14 c-15 -7 -51 -28 -80 -46
-29 -18 -55 -33 -57 -33 -3 0 -22 -11 -43 -23 -20 -13 -57 -35 -82 -49 -67
-37 -109 -62 -168 -97 -29 -17 -55 -31 -58 -31 -2 0 -23 -12 -47 -27 -39 -25
-169 -100 -277 -160 -25 -14 -49 -29 -55 -33 -5 -4 -117 -69 -247 -143 -130
-75 -254 -147 -276 -159 -21 -13 -88 -51 -148 -86 -60 -35 -116 -67 -124 -72
-15 -9 -231 -133 -300 -173 -131 -74 -363 -209 -398 -231 -23 -14 -44 -26 -46
-26 -2 0 -40 -21 -83 -46 -43 -26 -94 -56 -113 -67 -57 -32 -420 -242 -484
-279 l-59 -35 -216 125 c-119 68 -322 185 -451 260 -129 74 -320 185 -425 245
-104 61 -203 118 -220 127 -39 22 -325 187 -482 279 -68 39 -126 71 -130 71
-3 0 -14 6 -22 14 -9 7 -36 25 -61 38 -25 14 -90 51 -145 83 -55 32 -116 67
-135 78 -19 11 -64 37 -100 57 -36 20 -137 79 -225 130 -217 126 -463 268
-505 292 -19 11 -84 49 -146 84 l-112 64 2 1947 1 1947 50 29 c79 47 375 217
425 245 25 14 57 33 72 43 14 11 28 19 31 19 2 0 66 36 142 80 76 44 140 80
144 80 4 0 13 6 19 12 7 7 42 29 77 48 35 19 164 93 287 164 123 71 323 187
446 258 122 70 324 187 450 259 125 72 241 139 258 149 16 10 91 53 165 95
183 107 625 362 674 390 22 13 60 34 84 48 36 21 49 24 65 15 12 -6 138 -79
281 -161z m95 -2137 c411 -78 770 -311 1001 -652 95 -139 197 -372 225 -515 1
-6 7 -34 13 -62 33 -153 33 -432 1 -561 -5 -19 -12 -50 -15 -68 -21 -125 -128
-373 -216 -504 -263 -389 -666 -634 -1129 -684 -125 -13 -328 -6 -425 16 -199
45 -277 71 -409 137 -173 86 -274 159 -417 303 -282 283 -441 666 -442 1065
-2 732 500 1357 1217 1516 49 11 123 22 165 26 42 3 77 7 79 8 12 10 262 -8
352 -25z"/>
</g>
</svg>
