<?xml version="1.0" encoding="utf-8"?>
<!-- Generator: Adobe Illustrator 18.0.0, SVG Export Plug-In . SVG Version: 6.00 Build 0)  -->
<!DOCTYPE svg PUBLIC "-//W3C//DTD SVG 1.1//EN" "http://www.w3.org/Graphics/SVG/1.1/DTD/svg11.dtd">
<svg version="1.1" xmlns="http://www.w3.org/2000/svg" xmlns:xlink="http://www.w3.org/1999/xlink" x="0px" y="0px"
	 viewBox="0 0 1280 720" style="enable-background:new 0 0 1280 720;" xml:space="preserve">
<g id="Background">
	<g>
		<rect style="fill:#FFFFFF;" width="1280" height="720"/>
		
			<radialGradient id="SVGID_1_" cx="639.8619" cy="-2454.8865" r="361.8221" gradientTransform="matrix(1.3504 0 0 0.1145 -224.0696 905.8221)" gradientUnits="userSpaceOnUse">
			<stop  offset="0" style="stop-color:#DBDBDB"/>
			<stop  offset="0.302" style="stop-color:#ECECEC"/>
			<stop  offset="0.6792" style="stop-color:#FAFAFA"/>
			<stop  offset="1" style="stop-color:#FFFFFF"/>
		</radialGradient>
		<ellipse style="fill:url(#SVGID_1_);" cx="640" cy="624.7" rx="488.5" ry="41.4"/>
	</g>
</g>
<g id="Artwork">
	<g>
		<g>
			
				<rect x="709.9" y="264.6" transform="matrix(0.9197 0.3926 -0.3926 0.9197 163.166 -267.7747)" style="fill:#C4E2FF;" width="52.8" height="1"/>
			
				<rect x="797.8" y="225.6" transform="matrix(0.6675 0.7446 -0.7446 0.6675 455.0789 -509.7137)" style="fill:#C4E2FF;" width="1" height="58.2"/>
			
				<rect x="775.1" y="293.4" transform="matrix(0.6981 0.716 -0.716 0.6981 446.3257 -470.732)" style="fill:#C4E2FF;" width="12.6" height="1"/>
			
				<rect x="735.1" y="277.3" transform="matrix(0.6154 0.7882 -0.7882 0.6154 528.2506 -460.1385)" style="fill:#C4E2FF;" width="1" height="67.9"/>
			
				<rect x="693.1" y="338.6" transform="matrix(0.958 0.2868 -0.2868 0.958 134.3163 -183.5288)" style="fill:#C4E2FF;" width="1" height="56.2"/>
			
				<rect x="682.1" y="323.3" transform="matrix(0.6839 0.7296 -0.7296 0.6839 455.3965 -403.376)" style="fill:#C4E2FF;" width="22.2" height="1"/>
			
				<rect x="703.3" y="358.5" transform="matrix(0.8387 0.5445 -0.5445 0.8387 315.4054 -347.05)" style="fill:#C4E2FF;" width="80.7" height="1"/>
			
				<rect x="780" y="282" transform="matrix(0.9992 4.086407e-002 -4.086407e-002 0.9992 12.2049 -32.1283)" style="fill:#C4E2FF;" width="24" height="1"/>
			
				<rect x="615.8" y="383.8" transform="matrix(0.8827 0.47 -0.47 0.8827 256.4493 -258.6021)" style="fill:#C4E2FF;" width="60.7" height="1"/>
			
				<rect x="670.7" y="411.7" transform="matrix(0.8542 0.52 -0.52 0.8542 322.6114 -285.9588)" style="fill:#C4E2FF;" width="1" height="41"/>
			
				<rect x="685.8" y="424" transform="matrix(0.7886 0.6148 -0.6148 0.7886 410.5736 -345.46)" style="fill:#C4E2FF;" width="43.9" height="1"/>
			<path style="fill:#C4E2FF;" d="M769.2,293.3c-3.8,0-7.4-1.9-9.6-5.3c-3.3-5.3-1.7-12.3,3.6-15.6c5.3-3.3,12.3-1.7,15.6,3.6
				c3.3,5.3,1.7,12.3-3.6,15.6l0,0C773.4,292.7,771.3,293.3,769.2,293.3z M769.2,271.7c-1.9,0-3.8,0.5-5.4,1.6
				c-4.8,3-6.3,9.4-3.3,14.2c3,4.8,9.4,6.3,14.2,3.3c4.8-3,6.3-9.4,3.3-14.2C776,273.4,772.6,271.7,769.2,271.7z"/>
			<path style="fill:#C4E2FF;" d="M682.3,415.2c-3.8,0-7.4-1.9-9.6-5.3c-3.3-5.3-1.7-12.3,3.6-15.6c5.3-3.3,12.3-1.7,15.6,3.6
				c1.6,2.6,2.1,5.6,1.4,8.5c-0.7,2.9-2.5,5.4-5,7C686.4,414.7,684.4,415.2,682.3,415.2z M682.3,393.6c-1.9,0-3.8,0.5-5.4,1.6
				c-4.8,3-6.3,9.4-3.3,14.2c3,4.8,9.4,6.3,14.2,3.3l0,0c4.8-3,6.3-9.4,3.3-14.2C689.1,395.4,685.7,393.6,682.3,393.6z"/>
			<path style="fill:#C4E2FF;" d="M704.8,341.3c-1.9,0-3.8-1-4.9-2.7c-1.7-2.7-0.9-6.3,1.8-8c2.7-1.7,6.3-0.9,8,1.8
				c1.7,2.7,0.9,6.3-1.8,8C706.9,341,705.8,341.3,704.8,341.3z M704.8,330.7c-0.9,0-1.8,0.2-2.5,0.7c-2.2,1.4-2.9,4.4-1.5,6.6
				c1.4,2.2,4.4,2.9,6.6,1.5c2.2-1.4,2.9-4.4,1.5-6.6C707.9,331.5,706.4,330.7,704.8,330.7z"/>
			<path style="fill:#C4E2FF;" d="M682.8,317c-1.9,0-3.8-1-4.9-2.7c-1.7-2.7-0.9-6.3,1.8-8c2.7-1.7,6.3-0.9,8,1.8
				c1.7,2.7,0.9,6.3-1.8,8C684.9,316.7,683.8,317,682.8,317z M682.8,306.4c-0.9,0-1.8,0.2-2.5,0.7c-2.2,1.4-2.9,4.4-1.5,6.6
				c1.4,2.2,4.4,2.9,6.6,1.5c2.2-1.4,2.9-4.4,1.5-6.6C685.9,307.2,684.4,306.4,682.8,306.4z"/>
			<path style="fill:#C4E2FF;" d="M781.5,390.2c-1.9,0-3.8-1-4.9-2.7c-1.7-2.7-0.9-6.3,1.8-8c2.7-1.7,6.3-0.9,8,1.8
				c1.7,2.7,0.9,6.3-1.8,8C783.7,389.9,782.6,390.2,781.5,390.2z M781.5,379.6c-0.9,0-1.8,0.2-2.5,0.7c-2.2,1.4-2.9,4.4-1.5,6.6
				c1.4,2.2,4.4,2.9,6.6,1.5c2.2-1.4,2.9-4.4,1.5-6.6C784.7,380.4,783.1,379.6,781.5,379.6z"/>
			<path style="fill:#C4E2FF;" d="M729.5,446.8c-1.9,0-3.8-1-4.9-2.7c-1.7-2.7-0.9-6.3,1.8-8c2.7-1.7,6.3-0.9,8,1.8
				c1.7,2.7,0.9,6.3-1.8,8C731.6,446.5,730.5,446.8,729.5,446.8z M729.4,436.2c-0.9,0-1.8,0.2-2.5,0.7c-2.2,1.4-2.9,4.4-1.5,6.6
				c1.4,2.2,4.4,2.9,6.6,1.5c2.2-1.4,2.9-4.4,1.5-6.6C732.6,437,731,436.2,729.4,436.2z"/>
			<path style="fill:#C4E2FF;" d="M789.6,308c-1.9,0-3.8-1-4.9-2.7c-1.7-2.7-0.9-6.3,1.8-8c2.7-1.7,6.3-0.9,8,1.8
				c1.7,2.7,0.9,6.3-1.8,8C791.8,307.7,790.7,308,789.6,308z M789.6,297.3c-0.9,0-1.8,0.2-2.5,0.7c-2.2,1.4-2.9,4.4-1.5,6.6
				c1.4,2.2,4.4,2.9,6.6,1.5c2.2-1.4,2.9-4.4,1.5-6.6C792.8,298.1,791.2,297.3,789.6,297.3z"/>
			<path style="fill:#C4E2FF;" d="M824.5,238.3c-1.9,0-3.8-1-4.9-2.7c-1.7-2.7-0.9-6.3,1.8-8c2.7-1.7,6.3-0.9,8,1.8
				c1.7,2.7,0.9,6.3-1.8,8C826.6,238,825.5,238.3,824.5,238.3z M824.5,227.7c-0.9,0-1.8,0.2-2.5,0.7c-2.2,1.4-2.9,4.4-1.5,6.6
				c1.4,2.2,4.4,2.9,6.6,1.5c2.2-1.4,2.9-4.4,1.5-6.6C827.6,228.5,826.1,227.7,824.5,227.7z"/>
			<path style="fill:#C4E2FF;" d="M811.6,291.9c-2.7,0-5.4-1.4-7-3.8c-1.2-1.9-1.5-4-1-6.2c0.5-2.1,1.8-3.9,3.6-5.1
				c3.8-2.4,8.9-1.2,11.3,2.6c2.4,3.8,1.2,8.9-2.6,11.3l0,0C814.6,291.5,813.1,291.9,811.6,291.9z M811.6,276.5
				c-1.3,0-2.6,0.4-3.8,1.1c-1.6,1-2.8,2.6-3.2,4.5c-0.4,1.9-0.1,3.8,0.9,5.4c2.1,3.4,6.5,4.4,9.9,2.3c3.4-2.1,4.4-6.5,2.3-9.9
				C816.4,277.7,814,276.5,811.6,276.5z"/>
			<path style="fill:#C4E2FF;" d="M655.2,463.5c-0.6,0-1.2-0.1-1.8-0.2c-2.1-0.5-3.9-1.8-5.1-3.6c-1.2-1.9-1.5-4-1-6.2
				c0.5-2.1,1.8-3.9,3.6-5.1c1.9-1.2,4-1.5,6.2-1c2.1,0.5,3.9,1.8,5.1,3.6c2.4,3.8,1.2,8.9-2.6,11.3l0,0
				C658.2,463.1,656.7,463.5,655.2,463.5z M655.2,448.1c-1.3,0-2.6,0.4-3.8,1.1c-1.6,1-2.8,2.6-3.2,4.5c-0.4,1.9-0.1,3.8,0.9,5.4
				c1,1.6,2.6,2.8,4.5,3.2c1.9,0.4,3.8,0.1,5.4-0.9c3.4-2.1,4.4-6.5,2.3-9.9C659.9,449.3,657.6,448.1,655.2,448.1z"/>
			<path style="fill:#C4E2FF;" d="M612.3,375.1c-2.7,0-5.4-1.4-7-3.8c-1.2-1.9-1.5-4-1-6.2c0.5-2.1,1.8-3.9,3.6-5.1
				c1.9-1.2,4-1.5,6.2-1c2.1,0.5,3.9,1.8,5.1,3.6c2.4,3.8,1.2,8.9-2.6,11.3l0,0C615.3,374.7,613.8,375.1,612.3,375.1z M612.3,359.8
				c-1.3,0-2.6,0.4-3.8,1.1c-1.6,1-2.8,2.6-3.2,4.5s-0.1,3.8,0.9,5.4c2.1,3.4,6.5,4.4,9.9,2.3l0,0c3.4-2.1,4.4-6.5,2.3-9.9
				c-1-1.6-2.6-2.8-4.5-3.2C613.4,359.8,612.9,359.8,612.3,359.8z"/>
			<path style="fill:#C4E2FF;" d="M707,258.9c-1.9,0-3.8-1-4.9-2.7c-1.7-2.7-0.9-6.3,1.8-8c2.7-1.7,6.3-0.9,8,1.8
				c1.7,2.7,0.9,6.3-1.8,8C709.1,258.6,708.1,258.9,707,258.9z M707,248.2c-0.9,0-1.8,0.2-2.5,0.7c-2.2,1.4-2.9,4.4-1.5,6.6
				c1.4,2.2,4.4,2.9,6.6,1.5c2.2-1.4,2.9-4.4,1.5-6.6C710.2,249,708.6,248.2,707,248.2z"/>
		</g>
		<g>
			
				<rect x="977.5" y="289.8" transform="matrix(0.9591 0.2832 -0.2832 0.9591 126.6828 -264.4719)" style="fill:#FFBDE3;" width="1" height="32.2"/>
			
				<rect x="968.4" y="359.3" transform="matrix(0.6725 0.7401 -0.7401 0.6725 591.3074 -616.6293)" style="fill:#FFBDE3;" width="48.1" height="1"/>
			
				<rect x="935.7" y="318.6" transform="matrix(0.8082 0.5889 -0.5889 0.8082 369.8569 -497.4235)" style="fill:#FFBDE3;" width="25.8" height="1"/>
			
				<rect x="956.1" y="340.5" transform="matrix(0.8259 0.5638 -0.5638 0.8259 364.8291 -478.1608)" style="fill:#FFBDE3;" width="1" height="22.3"/>
			
				<rect x="1001.6" y="243.1" transform="matrix(0.7615 0.6482 -0.6482 0.7615 410.9821 -586.3009)" style="fill:#FFBDE3;" width="1" height="44.4"/>
			
				<rect x="971.2" y="273.1" transform="matrix(0.2925 0.9563 -0.9563 0.2925 954.6864 -743.0836)" style="fill:#FFBDE3;" width="16.7" height="1"/>
			
				<rect x="989" y="288.1" transform="matrix(0.9964 8.502205e-002 -8.502205e-002 0.9964 28.1636 -84.0096)" style="fill:#FFBDE3;" width="22.7" height="1"/>
			
				<rect x="928" y="314.4" transform="matrix(0.2871 0.9579 -0.9579 0.2871 992.8036 -643.1917)" style="fill:#FFBDE3;" width="1" height="61.9"/>
			<path style="fill:#FFBDE3;" d="M969.3,344.8c-5,0-9.8-3.1-11.6-8.1c-2.3-6.4,1-13.5,7.4-15.8c6.4-2.3,13.5,1,15.8,7.4
				c2.3,6.4-1,13.5-7.4,15.8C972.1,344.5,970.7,344.8,969.3,344.8z M969.3,321.1c-1.3,0-2.6,0.2-3.9,0.7c-5.9,2.1-8.9,8.7-6.8,14.6
				c2.1,5.9,8.7,8.9,14.6,6.8c5.9-2.1,8.9-8.7,6.8-14.6C978.3,323.9,973.9,321.1,969.3,321.1z"/>
			<path style="fill:#FFBDE3;" d="M1027.7,256.6c-5,0-9.8-3.1-11.6-8.1c-2.3-6.4,1-13.5,7.4-15.8c6.4-2.3,13.5,1,15.8,7.4
				c2.3,6.4-1,13.5-7.4,15.8C1030.5,256.4,1029.1,256.6,1027.7,256.6z M1027.6,232.9c-1.3,0-2.6,0.2-3.9,0.7
				c-5.9,2.1-8.9,8.7-6.8,14.6c2.1,5.9,8.7,8.9,14.6,6.8c5.9-2.1,8.9-8.7,6.8-14.6C1036.6,235.8,1032.3,232.9,1027.6,232.9z"/>
			<path style="fill:#FFBDE3;" d="M887.7,370.7c-1.8,0-3.5-0.4-5.2-1.2c-3-1.4-5.3-3.9-6.4-7c-1.1-3.1-1-6.5,0.4-9.4
				c1.4-3,3.9-5.3,7-6.4c3.1-1.1,6.5-1,9.4,0.4c3,1.4,5.3,3.9,6.4,7c1.1,3.1,1,6.5-0.4,9.4c-1.4,3-3.9,5.3-7,6.4l0,0
				C890.6,370.4,889.1,370.7,887.7,370.7z M887.7,347c-1.3,0-2.6,0.2-3.9,0.7c-2.8,1-5.1,3.1-6.4,5.9c-1.3,2.7-1.4,5.8-0.4,8.7
				c1,2.8,3.1,5.1,5.9,6.4c2.7,1.3,5.8,1.4,8.7,0.4c5.9-2.1,8.9-8.7,6.8-14.6c-1-2.8-3.1-5.1-5.9-6.4C891,347.3,889.4,347,887.7,347
				z"/>
			<path style="fill:#FFBDE3;" d="M984.5,291.3c-0.8,0-1.6-0.2-2.3-0.5c-1.3-0.6-2.3-1.7-2.8-3.1c-1-2.8,0.4-5.9,3.2-7
				c1.4-0.5,2.8-0.4,4.2,0.2c1.3,0.6,2.3,1.7,2.8,3.1c1,2.8-0.4,5.9-3.2,7C985.7,291.2,985.1,291.3,984.5,291.3z M984.5,281.5
				c-0.5,0-1,0.1-1.5,0.3c-2.3,0.8-3.5,3.4-2.6,5.7c0.4,1.1,1.2,2,2.3,2.5c1.1,0.5,2.3,0.6,3.4,0.1l0,0c2.3-0.8,3.5-3.4,2.6-5.7
				c-0.4-1.1-1.2-2-2.3-2.5C985.8,281.6,985.1,281.5,984.5,281.5z"/>
			<path style="fill:#FFBDE3;" d="M1011.7,386.9c-0.8,0-1.6-0.2-2.3-0.5c-1.3-0.6-2.3-1.7-2.8-3.1c-1-2.8,0.4-5.9,3.2-7
				c2.8-1,5.9,0.4,7,3.2c0.5,1.4,0.4,2.8-0.2,4.2c-0.6,1.3-1.7,2.3-3.1,2.8l0,0C1012.9,386.8,1012.3,386.9,1011.7,386.9z
				 M1011.7,377c-0.5,0-1,0.1-1.5,0.3c-2.3,0.8-3.5,3.4-2.6,5.7c0.8,2.3,3.4,3.5,5.7,2.6l0,0c1.1-0.4,2-1.2,2.5-2.3
				c0.5-1.1,0.6-2.3,0.1-3.4C1015.2,378.1,1013.5,377,1011.7,377z"/>
			<path style="fill:#FFBDE3;" d="M1016.6,295.4c-2.2,0-4.3-1.4-5.1-3.6c-1-2.8,0.4-5.9,3.2-7c2.8-1,5.9,0.4,7,3.2
				c1,2.8-0.4,5.9-3.2,7l0,0C1017.9,295.3,1017.2,295.4,1016.6,295.4z M1016.6,285.5c-0.5,0-1,0.1-1.5,0.3c-2.3,0.8-3.5,3.4-2.6,5.7
				c0.8,2.3,3.4,3.5,5.7,2.6l0,0c2.3-0.8,3.5-3.4,2.6-5.7C1020.1,286.7,1018.4,285.5,1016.6,285.5z"/>
			<path style="fill:#FFBDE3;" d="M976,266.3c-0.8,0-1.6-0.2-2.3-0.5c-1.3-0.6-2.3-1.7-2.8-3.1c-0.5-1.4-0.4-2.8,0.2-4.2
				c0.6-1.3,1.7-2.3,3.1-2.8c1.4-0.5,2.8-0.4,4.2,0.2c1.3,0.6,2.3,1.7,2.8,3.1c0.5,1.4,0.4,2.8-0.2,4.2c-0.6,1.3-1.7,2.3-3.1,2.8
				l0,0C977.3,266.2,976.7,266.3,976,266.3z M976,256.4c-0.5,0-1,0.1-1.5,0.3c-1.1,0.4-2,1.2-2.5,2.3c-0.5,1.1-0.6,2.3-0.1,3.4
				c0.4,1.1,1.2,2,2.3,2.5c1.1,0.5,2.3,0.6,3.4,0.1l0,0c1.1-0.4,2-1.2,2.5-2.3c0.5-1.1,0.6-2.3,0.1-3.4c-0.4-1.1-1.2-2-2.3-2.5
				C977.3,256.5,976.7,256.4,976,256.4z"/>
			<path style="fill:#FFBDE3;" d="M947.7,370.4c-2.2,0-4.3-1.4-5.1-3.6c-1-2.8,0.4-5.9,3.2-7c2.8-1,5.9,0.4,7,3.2
				c0.5,1.4,0.4,2.8-0.2,4.2c-0.6,1.3-1.7,2.3-3.1,2.8l0,0C948.9,370.3,948.3,370.4,947.7,370.4z M947.7,360.6c-0.5,0-1,0.1-1.5,0.3
				c-1.1,0.4-2,1.2-2.5,2.3c-0.5,1.1-0.6,2.3-0.1,3.4c0.8,2.3,3.4,3.5,5.7,2.6l0,0c1.1-0.4,2-1.2,2.5-2.3c0.5-1.1,0.6-2.3,0.1-3.4
				C951.2,361.7,949.5,360.6,947.7,360.6z"/>
			<path style="fill:#FFBDE3;" d="M934,314.2c-2.2,0-4.3-1.4-5.1-3.6c-1-2.8,0.4-5.9,3.2-7c1.4-0.5,2.8-0.4,4.2,0.2
				c1.3,0.6,2.3,1.7,2.8,3.1c0.5,1.4,0.4,2.8-0.2,4.2c-0.6,1.3-1.7,2.3-3.1,2.8l0,0C935.3,314.1,934.6,314.2,934,314.2z M934,304.3
				c-0.5,0-1,0.1-1.5,0.3c-2.3,0.8-3.5,3.4-2.6,5.7c0.8,2.3,3.4,3.5,5.7,2.6c1.1-0.4,2-1.2,2.5-2.3c0.5-1.1,0.6-2.3,0.1-3.4
				c-0.4-1.1-1.2-2-2.3-2.5C935.3,304.5,934.7,304.3,934,304.3z"/>
		</g>
		<g>
			
				<rect x="879" y="246.2" transform="matrix(0.2109 0.9775 -0.9775 0.2109 984.7036 -625.8443)" style="fill:#73C0FF;" width="2" height="101.6"/>
			
				<rect x="948" y="312.9" transform="matrix(0.778 0.6282 -0.6282 0.778 416.2063 -550.1659)" style="fill:#73C0FF;" width="77.3" height="2"/>
			<rect x="942.8" y="223.4" style="fill:#73C0FF;" width="2" height="44"/>
			
				<rect x="766.6" y="269.7" transform="matrix(0.4824 0.876 -0.876 0.4824 652.3383 -562.5071)" style="fill:#73C0FF;" width="70.9" height="2"/>
			
				<rect x="1085.8" y="255" transform="matrix(0.3769 0.9262 -0.9262 0.3769 971.9412 -808.3124)" style="fill:#73C0FF;" width="2" height="126.6"/>
			
				<rect x="771.1" y="299.6" transform="matrix(0.7525 0.6586 -0.6586 0.7525 432.0151 -418.008)" style="fill:#73C0FF;" width="2" height="132.3"/>
			
				<rect x="735.4" y="225.6" transform="matrix(0.9258 0.378 -0.378 0.9258 141.8136 -269.3351)" style="fill:#73C0FF;" width="43.4" height="2"/>
			
				<rect x="1008.7" y="387.4" transform="matrix(0.6039 0.797 -0.797 0.6039 727.3249 -686.9045)" style="fill:#73C0FF;" width="92.1" height="2"/>
			
				<rect x="805.4" y="176.9" transform="matrix(0.7752 0.6317 -0.6317 0.7752 313.0418 -462.5127)" style="fill:#73C0FF;" width="2" height="63.4"/>
			<path style="fill:#00DD29;" d="M943.8,297.9c-8.7,0-15.8-7.1-15.8-15.8s7.1-15.8,15.8-15.8c8.7,0,15.8,7.1,15.8,15.8
				S952.5,297.9,943.8,297.9z M943.8,268.4c-7.6,0-13.8,6.2-13.8,13.8c0,7.6,6.2,13.8,13.8,13.8c7.6,0,13.8-6.2,13.8-13.8
				C957.6,274.5,951.4,268.4,943.8,268.4z"/>
			<path style="fill:#73C0FF;" d="M722.8,230.3c-8.7,0-15.8-7.1-15.8-15.8c0-8.7,7.1-15.8,15.8-15.8c8.7,0,15.8,7.1,15.8,15.8
				C738.6,223.2,731.5,230.3,722.8,230.3z M722.8,200.7c-7.6,0-13.8,6.2-13.8,13.8c0,7.6,6.2,13.8,13.8,13.8s13.8-6.2,13.8-13.8
				C736.6,206.9,730.4,200.7,722.8,200.7z"/>
			<path style="fill:#73C0FF;" d="M1020.4,355.7c-5.3,0-9.7-4.3-9.7-9.7c0-5.3,4.3-9.7,9.7-9.7s9.7,4.3,9.7,9.7
				C1030.1,351.3,1025.7,355.7,1020.4,355.7z M1020.4,338.3c-4.2,0-7.7,3.4-7.7,7.7s3.4,7.7,7.7,7.7c4.2,0,7.7-3.4,7.7-7.7
				S1024.6,338.3,1020.4,338.3z"/>
			<path style="fill:#73C0FF;" d="M822,319.7c-5.3,0-9.7-4.3-9.7-9.7c0-5.3,4.3-9.7,9.7-9.7c5.3,0,9.7,4.3,9.7,9.7
				C831.7,315.3,827.3,319.7,822,319.7z M822,302.3c-4.2,0-7.7,3.4-7.7,7.7c0,4.2,3.4,7.7,7.7,7.7c4.2,0,7.7-3.4,7.7-7.7
				C829.7,305.8,826.2,302.3,822,302.3z"/>
			<path style="fill:#73C0FF;" d="M832.3,187.4c-5.3,0-9.7-4.3-9.7-9.7c0-5.3,4.3-9.7,9.7-9.7c5.3,0,9.7,4.3,9.7,9.7
				C842,183,837.7,187.4,832.3,187.4z M832.3,170c-4.2,0-7.7,3.4-7.7,7.7s3.4,7.7,7.7,7.7c4.2,0,7.7-3.4,7.7-7.7
				S836.6,170,832.3,170z"/>
			<path style="fill:#73C0FF;" d="M1088.2,440.6c-5.3,0-9.7-4.3-9.7-9.7c0-5.3,4.3-9.7,9.7-9.7s9.7,4.3,9.7,9.7
				C1097.9,436.2,1093.5,440.6,1088.2,440.6z M1088.2,423.2c-4.2,0-7.7,3.4-7.7,7.7c0,4.2,3.4,7.7,7.7,7.7s7.7-3.4,7.7-7.7
				C1095.9,426.7,1092.4,423.2,1088.2,423.2z"/>
			<path style="fill:#73C0FF;" d="M726,425.7c-3.3,0-6-2.7-6-6c0-3.3,2.7-6,6-6c3.3,0,6,2.7,6,6C732,423.1,729.3,425.7,726,425.7z
				 M726,415.8c-2.2,0-4,1.8-4,4c0,2.2,1.8,4,4,4c2.2,0,4-1.8,4-4C730,417.6,728.2,415.8,726,415.8z"/>
			<path style="fill:#73C0FF;" d="M782.1,241.6c-3.3,0-6-2.7-6-6s2.7-6,6-6c3.3,0,6,2.7,6,6S785.4,241.6,782.1,241.6z M782.1,231.6
				c-2.2,0-4,1.8-4,4c0,2.2,1.8,4,4,4c2.2,0,4-1.8,4-4C786,233.4,784.3,231.6,782.1,231.6z"/>
			<path style="fill:#00DD29;" d="M1157.7,302c-8.7,0-15.8-7.1-15.8-15.8c0-8.7,7.1-15.8,15.8-15.8s15.8,7.1,15.8,15.8
				C1173.5,295,1166.4,302,1157.7,302z M1157.7,272.5c-7.6,0-13.8,6.2-13.8,13.8c0,7.6,6.2,13.8,13.8,13.8s13.8-6.2,13.8-13.8
				C1171.5,278.7,1165.3,272.5,1157.7,272.5z"/>
			<path style="fill:#FFC400;" d="M943.8,224.4c-3.3,0-6-2.7-6-6c0-3.3,2.7-6,6-6c3.3,0,6,2.7,6,6
				C949.8,221.7,947.1,224.4,943.8,224.4z M943.8,214.4c-2.2,0-4,1.8-4,4c0,2.2,1.8,4,4,4c2.2,0,4-1.8,4-4
				C947.8,216.2,946,214.4,943.8,214.4z"/>
		</g>
		<g>
			
				<rect x="147.6" y="304.9" transform="matrix(0.9998 1.949629e-002 -1.949629e-002 0.9998 6.3022 -2.8264)" style="fill:#C4E2FF;" width="1" height="33.9"/>
			
				<rect x="74.1" y="275.1" transform="matrix(0.9114 0.4116 -0.4116 0.9114 122.9576 -19.7216)" style="fill:#C4E2FF;" width="66.4" height="1"/>
			
				<rect x="154.7" y="310" transform="matrix(0.7357 0.6774 -0.6774 0.7357 254.7234 -31.7607)" style="fill:#C4E2FF;" width="26.7" height="1"/>
			
				<rect x="111.4" y="244.3" transform="matrix(9.367369e-002 0.9956 -0.9956 9.367369e-002 376.7485 75.6769)" style="fill:#C4E2FF;" width="70.8" height="1"/>
			
				<rect x="134.5" y="346.4" transform="matrix(0.9059 0.4236 -0.4236 0.9059 169.3172 -22.3726)" style="fill:#C4E2FF;" width="1" height="46.7"/>
			
				<rect x="146.9" y="354.5" transform="matrix(0.5353 0.8447 -0.8447 0.5353 372.1512 33.5258)" style="fill:#C4E2FF;" width="17.5" height="1"/>
			
				<rect x="115.8" y="342.5" transform="matrix(0.9995 3.129951e-002 -3.129951e-002 0.9995 10.7974 -3.8667)" style="fill:#C4E2FF;" width="26.2" height="1"/>
			
				<rect x="174.3" y="247.5" transform="matrix(0.7274 0.6863 -0.6863 0.7274 232.4881 -46.4929)" style="fill:#C4E2FF;" width="1" height="43.8"/>
			<path style="fill:#C4E2FF;" d="M72.3,265.4c-1.8,0-3.5-0.8-4.6-2.4c-1.8-2.6-1.2-6.1,1.3-7.9h0c2.6-1.8,6.1-1.2,7.9,1.3
				c1.8,2.6,1.2,6.1-1.3,7.9C74.6,265.1,73.5,265.4,72.3,265.4z M69.6,255.9c-2.1,1.5-2.6,4.4-1.1,6.5c1.5,2.1,4.4,2.6,6.5,1.1
				c2.1-1.5,2.6-4.4,1.1-6.5C74.6,254.9,71.7,254.4,69.6,255.9L69.6,255.9z"/>
			<path style="fill:#C4E2FF;" d="M110.6,348.1c-1.8,0-3.5-0.8-4.6-2.4c-0.9-1.2-1.2-2.7-1-4.2c0.3-1.5,1.1-2.8,2.3-3.7
				c2.6-1.8,6.1-1.2,7.9,1.3c0.9,1.2,1.2,2.7,1,4.2c-0.3,1.5-1.1,2.8-2.3,3.7C112.9,347.8,111.8,348.1,110.6,348.1z M110.6,337.7
				c-0.9,0-1.9,0.3-2.7,0.9c-2.1,1.5-2.6,4.4-1.1,6.5c1.5,2.1,4.4,2.6,6.5,1.1c1-0.7,1.7-1.8,1.9-3c0.2-1.2-0.1-2.5-0.8-3.5
				C113.5,338.4,112.1,337.7,110.6,337.7z"/>
			<path style="fill:#C4E2FF;" d="M162.7,372.7c-0.3,0-0.6,0-1-0.1c-1.5-0.3-2.8-1.1-3.7-2.3c-0.9-1.2-1.2-2.7-1-4.2
				c0.3-1.5,1.1-2.8,2.3-3.7l0,0c1.2-0.9,2.7-1.2,4.2-1c1.5,0.3,2.8,1.1,3.7,2.3c1.8,2.6,1.2,6.1-1.3,7.9
				C165,372.3,163.9,372.7,162.7,372.7z M160,363.1c-2.1,1.5-2.6,4.4-1.1,6.5c0.7,1,1.8,1.7,3,1.9c1.2,0.2,2.5-0.1,3.5-0.8
				c2.1-1.5,2.6-4.4,1.1-6.5c-0.7-1-1.8-1.7-3-1.9C162.2,362.1,161,362.4,160,363.1L160,363.1z"/>
			<path style="fill:#C4E2FF;" d="M142.9,210c-0.3,0-0.6,0-1-0.1c-1.5-0.3-2.8-1.1-3.7-2.3c-1.8-2.6-1.2-6.1,1.3-7.9
				c2.6-1.8,6.1-1.2,7.9,1.3c1.8,2.6,1.2,6.1-1.3,7.9C145.2,209.7,144.1,210,142.9,210z M142.9,199.7c-0.9,0-1.9,0.3-2.7,0.9
				c-2.1,1.5-2.6,4.4-1.1,6.5c0.7,1,1.8,1.7,3,1.9c1.2,0.2,2.5-0.1,3.5-0.8c2.1-1.5,2.6-4.4,1.1-6.5
				C145.8,200.3,144.3,199.7,142.9,199.7z"/>
			<path style="fill:#C4E2FF;" d="M181.6,328.3c-1.8,0-3.5-0.8-4.6-2.4c-0.9-1.2-1.2-2.7-1-4.2c0.3-1.5,1.1-2.8,2.3-3.7
				c1.2-0.9,2.7-1.2,4.2-1c1.5,0.3,2.8,1.1,3.7,2.3c1.8,2.6,1.2,6.1-1.3,7.9C183.9,327.9,182.7,328.3,181.6,328.3z M181.6,317.9
				c-1,0-1.9,0.3-2.7,0.9l0,0c-1,0.7-1.7,1.8-1.9,3c-0.2,1.2,0.1,2.5,0.8,3.5c1.5,2.1,4.4,2.6,6.5,1.1c2.1-1.5,2.6-4.4,1.1-6.5
				c-0.7-1-1.8-1.7-3-1.9C182.1,317.9,181.8,317.9,181.6,317.9z"/>
			<path style="fill:#00DD29;" d="M149.6,305.9c-4.2,0-8.4-2-11-5.7c-4.3-6-2.9-14.5,3.2-18.8c2.9-2.1,6.5-2.9,10-2.3
				c3.5,0.6,6.6,2.5,8.7,5.5c4.3,6,2.9,14.5-3.2,18.8C155,305.1,152.3,305.9,149.6,305.9z M149.6,281c-2.4,0-4.7,0.7-6.6,2.1
				c-5.1,3.7-6.4,10.8-2.7,16c3.7,5.1,10.8,6.4,16,2.7c5.1-3.7,6.4-10.8,2.7-16c-1.8-2.5-4.4-4.1-7.4-4.7
				C150.9,281.1,150.2,281,149.6,281z"/>
			<path style="fill:#C4E2FF;" d="M115,411.1c-4.1,0-8.1-1.9-10.6-5.4c-4.1-5.8-2.8-13.9,3-18.1c2.8-2,6.3-2.8,9.7-2.2
				c3.4,0.6,6.4,2.4,8.4,5.3c2,2.8,2.8,6.3,2.2,9.7c-0.6,3.4-2.4,6.4-5.3,8.4C120.2,410.3,117.6,411.1,115,411.1z M114.9,386.1
				c-2.5,0-4.9,0.8-6.9,2.2l0,0c-5.4,3.8-6.6,11.3-2.8,16.7c3.8,5.4,11.3,6.6,16.7,2.8c2.6-1.9,4.3-4.6,4.9-7.8
				c0.5-3.2-0.2-6.3-2-8.9c-1.9-2.6-4.6-4.3-7.8-4.9C116.3,386.2,115.6,386.1,114.9,386.1z"/>
			<path style="fill:#C4E2FF;" d="M197,256.2c-0.7,0-1.5-0.1-2.2-0.2c-3.4-0.6-6.4-2.4-8.4-5.3c-4.1-5.8-2.8-13.9,3-18.1l0,0
				c2.8-2,6.3-2.8,9.7-2.2c3.4,0.6,6.4,2.4,8.4,5.3c4.1,5.8,2.8,13.9-3,18.1C202.3,255.4,199.7,256.2,197,256.2z M190,233.5
				c-5.4,3.8-6.6,11.3-2.8,16.7c1.9,2.6,4.6,4.3,7.8,4.9c3.1,0.5,6.3-0.2,8.9-2c5.4-3.8,6.6-11.3,2.8-16.7
				C202.9,231,195.4,229.7,190,233.5L190,233.5z"/>
			<path style="fill:#C4E2FF;" d="M147.2,349.6c-0.3,0-0.6,0-1-0.1c-1.5-0.3-2.8-1.1-3.7-2.3c-0.9-1.2-1.2-2.7-1-4.2
				c0.3-1.5,1.1-2.8,2.3-3.7c1.2-0.9,2.7-1.2,4.2-1c1.5,0.3,2.8,1.1,3.7,2.3c1.8,2.6,1.2,6.1-1.3,7.9
				C149.5,349.2,148.3,349.6,147.2,349.6z M147.1,339.2c-0.9,0-1.9,0.3-2.7,0.9c-1,0.7-1.7,1.8-1.9,3c-0.2,1.2,0.1,2.5,0.8,3.5
				c0.7,1,1.8,1.7,3,1.9c1.2,0.2,2.5-0.1,3.5-0.8c2.1-1.5,2.6-4.4,1.1-6.5C150.1,339.9,148.6,339.2,147.1,339.2z"/>
		</g>
		<g>
			
				<rect x="355.6" y="264.6" transform="matrix(0.2901 0.957 -0.957 0.2901 517.5769 -167.4725)" style="fill:#C4E2FF;" width="32.2" height="1"/>
			
				<rect x="386.2" y="309" transform="matrix(0.9088 0.4172 -0.4172 0.9088 166.6292 -143.2716)" style="fill:#C4E2FF;" width="49.7" height="1"/>
			
				<rect x="352.7" y="279.5" transform="matrix(0.6948 0.7193 -0.7193 0.6948 311.8766 -174.8906)" style="fill:#C4E2FF;" width="18.5" height="1"/>
			
				<rect x="378.4" y="303.9" transform="matrix(0.9998 1.749732e-002 -1.749732e-002 0.9998 5.5712 -6.5816)" style="fill:#C4E2FF;" width="1" height="22.3"/>
			
				<rect x="369" y="195.7" transform="matrix(0.9924 0.123 -0.123 0.9924 29.618 -43.7997)" style="fill:#C4E2FF;" width="1" height="44.4"/>
			
				<rect x="346.8" y="236.8" transform="matrix(0.7698 0.6383 -0.6383 0.7698 233.2587 -172.072)" style="fill:#C4E2FF;" width="16.7" height="1"/>
			
				<rect x="379.2" y="231.8" transform="matrix(0.298 0.9546 -0.9546 0.298 496.7068 -193.2645)" style="fill:#C4E2FF;" width="1" height="18.6"/>
			
				<rect x="362.5" y="298" transform="matrix(0.7178 0.6962 -0.6962 0.7178 318.7593 -165.0698)" style="fill:#C4E2FF;" width="1" height="25.4"/>
			<path style="fill:#C4E2FF;" d="M379.3,198.7c-2.6,0-5.2-0.8-7.3-2.4c-2.6-2-4.4-4.8-4.9-8.1c-0.5-3.3,0.3-6.5,2.3-9.2
				c2-2.6,4.8-4.4,8.1-4.9c3.3-0.5,6.5,0.3,9.2,2.3c2.6,2,4.4,4.8,4.9,8.1c0.5,3.3-0.3,6.5-2.3,9.2c-2,2.6-4.8,4.4-8.1,4.9
				C380.5,198.7,379.9,198.7,379.3,198.7z M379.3,175c-0.6,0-1.1,0-1.7,0.1c-3,0.4-5.6,2-7.5,4.5c-1.8,2.4-2.6,5.4-2.1,8.4
				c0.4,3,2,5.6,4.5,7.5c2.4,1.8,5.4,2.6,8.4,2.1c3-0.4,5.6-2,7.5-4.5c1.8-2.4,2.6-5.4,2.1-8.4c-0.4-3-2-5.6-4.5-7.5
				C384.1,175.8,381.7,175,379.3,175z"/>
			<path style="fill:#C4E2FF;" d="M366,250.3c-1.2,0-2.3-0.4-3.2-1.1c-2.4-1.8-2.9-5.2-1.1-7.6c1.8-2.4,5.2-2.9,7.6-1.1
				c2.4,1.8,2.9,5.2,1.1,7.6c-0.9,1.2-2.1,1.9-3.6,2.1C366.6,250.3,366.3,250.3,366,250.3z M366.1,240.4c-1.4,0-2.7,0.6-3.6,1.8
				c-1.5,2-1,4.7,0.9,6.2c1,0.7,2.1,1,3.3,0.8c1.2-0.2,2.2-0.8,2.9-1.7v0c1.5-2,1-4.7-0.9-6.2C367.9,240.7,367,240.4,366.1,240.4z"
				/>
			<path style="fill:#C4E2FF;" d="M437.6,328.3c-1.1,0-2.3-0.3-3.2-1.1c-2.4-1.8-2.9-5.2-1.1-7.6c1.8-2.4,5.2-2.9,7.6-1.1
				c2.4,1.8,2.9,5.2,1.1,7.6v0C440.9,327.5,439.3,328.3,437.6,328.3z M437.6,318.4c-1.4,0-2.7,0.6-3.6,1.8c-1.5,2-1,4.7,0.9,6.2
				c2,1.5,4.7,1,6.2-0.9v0c1.5-2,1-4.7-0.9-6.2C439.5,318.7,438.5,318.4,437.6,318.4z"/>
			<path style="fill:#C4E2FF;" d="M393.4,242.7c-1.1,0-2.3-0.3-3.2-1.1c-2.4-1.8-2.9-5.2-1.1-7.6c1.8-2.4,5.2-2.9,7.6-1.1
				c1.2,0.9,1.9,2.1,2.1,3.6c0.2,1.4-0.1,2.9-1,4v0C396.7,241.9,395.1,242.7,393.4,242.7z M393.4,232.8c-1.4,0-2.7,0.6-3.6,1.8
				c-1.5,2-1,4.7,0.9,6.2c1,0.7,2.1,1,3.3,0.8c1.2-0.2,2.2-0.8,2.9-1.7v0c0.7-1,1-2.1,0.8-3.3c-0.2-1.2-0.8-2.2-1.7-2.9
				C395.3,233.1,394.4,232.8,393.4,232.8z"/>
			<path style="fill:#C4E2FF;" d="M345.2,234c-1.1,0-2.3-0.3-3.2-1.1c-2.4-1.8-2.9-5.2-1.1-7.6c1.8-2.4,5.2-2.9,7.6-1.1
				c2.4,1.8,2.9,5.2,1.1,7.6v0C348.5,233.2,346.9,234,345.2,234z M345.2,224.1c-0.2,0-0.4,0-0.7,0c-1.2,0.2-2.2,0.8-2.9,1.7
				c-1.5,2-1,4.7,0.9,6.2c2,1.5,4.7,1,6.2-0.9c1.5-2,1-4.7-0.9-6.2C347.1,224.4,346.2,224.1,345.2,224.1z"/>
			<path style="fill:#C4E2FF;" d="M378.8,336.6c-1.1,0-2.3-0.3-3.2-1.1c-2.4-1.8-2.9-5.2-1.1-7.6c0.9-1.2,2.1-1.9,3.6-2.1
				c1.4-0.2,2.9,0.1,4,1c2.4,1.8,2.9,5.2,1.1,7.6v0C382.1,335.9,380.4,336.6,378.8,336.6z M378.8,326.7c-0.2,0-0.4,0-0.7,0
				c-1.2,0.2-2.2,0.8-2.9,1.7c-0.7,1-1,2.1-0.8,3.3c0.2,1.2,0.8,2.2,1.7,2.9c1,0.7,2.1,1,3.3,0.8c1.2-0.2,2.2-0.8,2.9-1.7v0
				c1.5-2,1-4.7-0.9-6.2C380.6,327,379.7,326.7,378.8,326.7z"/>
			<path style="fill:#C4E2FF;" d="M352.8,275.1c-1.2,0-2.3-0.4-3.2-1.1c-1.2-0.9-1.9-2.1-2.1-3.6c-0.2-1.4,0.1-2.9,1-4
				c1.8-2.4,5.2-2.9,7.6-1.1c2.4,1.8,2.9,5.2,1.1,7.6c-0.9,1.2-2.1,1.9-3.6,2.1C353.4,275.1,353.1,275.1,352.8,275.1z M352.8,265.2
				c-1.4,0-2.7,0.6-3.6,1.8c-0.7,1-1,2.1-0.8,3.3c0.2,1.2,0.8,2.2,1.7,2.9c1,0.7,2.1,1,3.3,0.8c1.2-0.2,2.2-0.8,2.9-1.7v0
				c1.5-2,1-4.7-0.9-6.2C354.7,265.5,353.8,265.2,352.8,265.2z"/>
			<path style="fill:#0044C2;" d="M378.9,304.4c-2.6,0-5.2-0.8-7.3-2.4c-2.6-2-4.4-4.8-4.9-8.1c-0.5-3.3,0.3-6.5,2.3-9.2
				c2-2.6,4.8-4.4,8.1-4.9c3.3-0.5,6.5,0.3,9.2,2.3c2.6,2,4.4,4.8,4.9,8.1c0.5,3.3-0.3,6.5-2.3,9.2c-2,2.6-4.8,4.4-8.1,4.9
				C380.1,304.4,379.5,304.4,378.9,304.4z M379,280.7c-0.6,0-1.1,0-1.7,0.1c-3,0.4-5.6,2-7.5,4.5c-1.8,2.4-2.6,5.4-2.1,8.4
				c0.4,3,2,5.6,4.5,7.5c2.4,1.8,5.4,2.6,8.4,2.1c3-0.4,5.6-2,7.5-4.5c1.8-2.4,2.6-5.4,2.1-8.4c-0.4-3-2-5.6-4.5-7.5
				C383.7,281.5,381.4,280.7,379,280.7z"/>
			<path style="fill:#C4E2FF;" d="M345.4,340.1c-2.6,0-5.2-0.8-7.3-2.4c-5.5-4.1-6.6-11.8-2.6-17.3c2-2.6,4.8-4.4,8.1-4.9
				c3.3-0.5,6.5,0.3,9.2,2.3c2.6,2,4.4,4.8,4.9,8.1c0.5,3.3-0.3,6.5-2.3,9.2c-2,2.6-4.8,4.4-8.1,4.9
				C346.6,340.1,346,340.1,345.4,340.1z M345.4,316.4c-0.6,0-1.1,0-1.7,0.1c-3,0.4-5.6,2-7.5,4.5c-3.7,5-2.7,12.1,2.3,15.9
				c2.4,1.8,5.4,2.6,8.4,2.1c3-0.4,5.6-2,7.5-4.5s2.6-5.4,2.1-8.4c-0.4-3-2-5.6-4.5-7.5C350.2,317.2,347.8,316.4,345.4,316.4z"/>
		</g>
		<g>
			
				<rect x="167.8" y="216.9" transform="matrix(0.4497 0.8932 -0.8932 0.4497 307.4211 -64.2616)" style="fill:#0389FF;" width="76" height="1"/>
			
				<rect x="275.9" y="199.7" transform="matrix(0.5977 0.8017 -0.8017 0.5977 298.8635 -127.3901)" style="fill:#0389FF;" width="1" height="68.9"/>
			
				<rect x="120.6" y="257.8" transform="matrix(0.9856 0.1691 -0.1691 0.9856 46.0995 -24.5045)" style="fill:#0389FF;" width="92.5" height="1"/>
			
				<rect x="251.5" y="287.3" transform="matrix(0.9287 0.3709 -0.3709 0.9287 126.3664 -81.6082)" style="fill:#0389FF;" width="47.8" height="1"/>
			<path style="fill:#0389FF;" d="M233.6,292c-12.1,0-22-9.9-22-22s9.9-22,22-22c12.1,0,22,9.9,22,22S245.8,292,233.6,292z
				 M233.6,249c-11.6,0-21,9.4-21,21c0,11.6,9.4,21,21,21c11.6,0,21-9.4,21-21C254.7,258.4,245.2,249,233.6,249z"/>
			<path style="fill:#FFC400;" d="M179.7,186.4c-12.4,0-22.5-10.1-22.5-22.5c0-12.4,10.1-22.5,22.5-22.5s22.5,10.1,22.5,22.5
				C202.2,176.3,192.1,186.4,179.7,186.4z M179.7,143.4c-11.3,0-20.5,9.2-20.5,20.5c0,11.3,9.2,20.5,20.5,20.5
				c11.3,0,20.5-9.2,20.5-20.5C200.2,152.6,191,143.4,179.7,143.4z"/>
			<path style="fill:#73C0FF;" d="M313.2,218.6c-7.5,0-13.7-6.1-13.7-13.7c0-7.5,6.1-13.7,13.7-13.7c7.5,0,13.7,6.1,13.7,13.7
				C326.9,212.4,320.8,218.6,313.2,218.6z M313.2,193.3c-6.4,0-11.7,5.2-11.7,11.7c0,6.4,5.2,11.7,11.7,11.7
				c6.4,0,11.7-5.2,11.7-11.7C324.9,198.5,319.7,193.3,313.2,193.3z"/>
			<path style="fill:#73C0FF;" d="M114.1,257.9c-4.5,0-8.2-3.7-8.2-8.2c0-4.5,3.7-8.2,8.2-8.2c4.5,0,8.2,3.7,8.2,8.2
				C122.3,254.2,118.6,257.9,114.1,257.9z M114.1,243.5c-3.4,0-6.2,2.8-6.2,6.2c0,3.4,2.8,6.2,6.2,6.2c3.4,0,6.2-2.8,6.2-6.2
				C120.3,246.3,117.5,243.5,114.1,243.5z"/>
			<path style="fill:#73C0FF;" d="M304.6,306.5c-4.5,0-8.2-3.7-8.2-8.2c0-4.5,3.7-8.2,8.2-8.2c4.5,0,8.2,3.7,8.2,8.2
				C312.9,302.8,309.2,306.5,304.6,306.5z M304.6,292c-3.4,0-6.2,2.8-6.2,6.2c0,3.4,2.8,6.2,6.2,6.2c3.4,0,6.2-2.8,6.2-6.2
				C310.9,294.8,308.1,292,304.6,292z"/>
		</g>
		<g>
			
				<rect x="462.8" y="311.5" transform="matrix(0.1923 0.9813 -0.9813 0.1923 717.2375 -247.5395)" style="fill:#FFBDE3;" width="92.5" height="1"/>
			
				<rect x="465.2" y="245.5" transform="matrix(0.4717 0.8818 -0.8818 0.4717 487.9068 -265.7366)" style="fill:#FFBDE3;" width="1" height="57.6"/>
			
				<rect x="517.7" y="164.2" transform="matrix(0.9387 0.3448 -0.3448 0.9387 103.1743 -165.9595)" style="fill:#FFBDE3;" width="1" height="85.9"/>
			
				<rect x="509.5" y="261.8" transform="matrix(0.9876 0.1567 -0.1567 0.9876 47.8612 -82.2326)" style="fill:#FFBDE3;" width="71.5" height="1"/>
			
				<rect x="418" y="221.1" transform="matrix(0.7204 0.6935 -0.6935 0.7204 282.5508 -257.7045)" style="fill:#FFBDE3;" width="85.8" height="1"/>
			<path style="fill:#FFBDE3;" d="M500.1,267.1c-5.7,0-10.4-4.7-10.4-10.4c0-5.7,4.7-10.4,10.4-10.4c5.7,0,10.4,4.7,10.4,10.4
				C510.5,262.4,505.8,267.1,500.1,267.1z M500.1,247.4c-5.2,0-9.4,4.2-9.4,9.4c0,5.2,4.2,9.4,9.4,9.4c5.2,0,9.4-4.2,9.4-9.4
				C509.5,251.6,505.3,247.4,500.1,247.4z"/>
			<path style="fill:#FFBDE3;" d="M430.9,301.2c-5.7,0-10.4-4.7-10.4-10.4s4.7-10.4,10.4-10.4s10.4,4.7,10.4,10.4
				S436.6,301.2,430.9,301.2z M430.9,281.4c-5.2,0-9.4,4.2-9.4,9.4c0,5.2,4.2,9.4,9.4,9.4c5.2,0,9.4-4.2,9.4-9.4
				C440.3,285.6,436.1,281.4,430.9,281.4z"/>
			<path style="fill:#FFBDE3;" d="M517.9,369.4c-3.5,0-6.3-2.8-6.3-6.3c0-3.5,2.8-6.3,6.3-6.3c3.5,0,6.3,2.8,6.3,6.3
				C524.2,366.6,521.4,369.4,517.9,369.4z M517.9,357.8c-2.9,0-5.3,2.4-5.3,5.3c0,2.9,2.4,5.3,5.3,5.3c2.9,0,5.3-2.4,5.3-5.3
				C523.2,360.2,520.8,357.8,517.9,357.8z"/>
			<path style="fill:#FFBDE3;" d="M586.4,274.2c-3.5,0-6.3-2.8-6.3-6.3c0-3.5,2.8-6.3,6.3-6.3c3.5,0,6.3,2.8,6.3,6.3
				C592.7,271.4,589.9,274.2,586.4,274.2z M586.4,262.6c-2.9,0-5.3,2.4-5.3,5.3c0,2.9,2.4,5.3,5.3,5.3c2.9,0,5.3-2.4,5.3-5.3
				C591.7,265,589.4,262.6,586.4,262.6z"/>
			<path style="fill:#FFBDE3;" d="M427.7,193.3c-2,0-3.6-1.5-3.8-3.5c-0.1-1,0.2-2,0.9-2.8c0.7-0.8,1.6-1.3,2.6-1.4
				c1-0.1,2,0.2,2.8,0.9c0.8,0.7,1.3,1.6,1.4,2.6c0.1,1-0.2,2-0.9,2.8c-0.7,0.8-1.6,1.3-2.6,1.4C428,193.3,427.9,193.3,427.7,193.3z
				 M427.8,186.7c-0.1,0-0.2,0-0.3,0c-0.8,0.1-1.4,0.4-1.9,1c-0.5,0.6-0.7,1.3-0.6,2.1c0.1,0.8,0.4,1.4,1,1.9
				c0.6,0.5,1.3,0.7,2.1,0.6c0.8-0.1,1.4-0.4,1.9-1c0.5-0.6,0.7-1.3,0.6-2.1c-0.1-0.8-0.4-1.4-1-1.9
				C429,186.9,428.4,186.7,427.8,186.7z"/>
			<path style="fill:#FFBDE3;" d="M535,167.6c-3.9,0-7.1-3.2-7.1-7.1c0-3.9,3.2-7.1,7.1-7.1s7.1,3.2,7.1,7.1
				C542.2,164.4,538.9,167.6,535,167.6z M535,154.3c-3.4,0-6.1,2.8-6.1,6.1c0,3.4,2.8,6.1,6.1,6.1c3.4,0,6.1-2.8,6.1-6.1
				C541.2,157.1,538.4,154.3,535,154.3z"/>
		</g>
		<g>
			
				<rect x="1085.2" y="155.3" transform="matrix(0.1798 0.9837 -0.9837 0.1798 1066.4623 -921.3522)" style="fill:#4DDEFF;" width="1" height="47"/>
			
				<rect x="1047.6" y="206.2" transform="matrix(0.2467 0.9691 -0.9691 0.2467 998.0641 -870.5388)" style="fill:#4DDEFF;" width="22.7" height="1"/>
			
				<rect x="1062.7" y="119.7" transform="matrix(0.9436 0.3312 -0.3312 0.9436 108.8637 -343.7986)" style="fill:#4DDEFF;" width="1" height="55.7"/>
			
				<rect x="997.1" y="145.3" transform="matrix(5.267954e-002 0.9986 -0.9986 5.267954e-002 1132.1173 -818.8445)" style="fill:#4DDEFF;" width="1" height="84"/>
			
				<rect x="921" y="181.5" transform="matrix(0.7306 0.6828 -0.6828 0.7306 399.4033 -569.5344)" style="fill:#4DDEFF;" width="1" height="79.7"/>
			
				<rect x="951.2" y="163.7" transform="matrix(0.9995 3.128468e-002 -3.128468e-002 0.9995 5.9477 -29.6867)" style="fill:#4DDEFF;" width="1" height="23.1"/>
			
				<rect x="949.9" y="198.8" transform="matrix(0.4091 0.9125 -0.9125 0.4091 746.5126 -754.2019)" style="fill:#4DDEFF;" width="11.4" height="1"/>
			<path style="fill:#4DDEFF;" d="M1051.2,197.3c-1.5,0-3-0.3-4.5-0.9l0,0c-6.2-2.5-9.2-9.6-6.7-15.8c2.5-6.2,9.6-9.2,15.8-6.7
				c6.2,2.5,9.2,9.6,6.7,15.8C1060.5,194.5,1056,197.3,1051.2,197.3z M1047,195.5c5.7,2.3,12.2-0.5,14.5-6.2
				c2.3-5.7-0.5-12.2-6.2-14.5c-5.7-2.3-12.2,0.5-14.5,6.2C1038.6,186.8,1041.3,193.2,1047,195.5L1047,195.5z"/>
			<path style="fill:#0044C2;" d="M1112.5,178.2c-0.5,0-1.1-0.1-1.6-0.3c-2.2-0.9-3.3-3.4-2.4-5.6c0.9-2.2,3.4-3.3,5.6-2.4
				c1.1,0.4,1.9,1.2,2.4,2.3c0.5,1.1,0.5,2.2,0,3.3c-0.4,1.1-1.2,1.9-2.3,2.4C1113.7,178.1,1113.1,178.2,1112.5,178.2z
				 M1112.6,170.6c-1.3,0-2.6,0.8-3.1,2.1c-0.7,1.7,0.1,3.6,1.8,4.3c0.8,0.3,1.7,0.3,2.5,0c0.8-0.3,1.4-1,1.8-1.8
				c0.3-0.8,0.3-1.7,0-2.5c-0.3-0.8-1-1.4-1.8-1.8C1113.4,170.6,1113,170.6,1112.6,170.6z"/>
			<path style="fill:#4DDEFF;" d="M952.5,164.2c-0.8,0-1.6-0.2-2.4-0.5c-1.6-0.6-2.8-1.9-3.5-3.4c-0.7-1.6-0.7-3.3,0-4.9
				c0.6-1.6,1.9-2.8,3.4-3.5c1.6-0.7,3.3-0.7,4.9,0c3.3,1.3,4.9,5.1,3.6,8.3c-0.6,1.6-1.9,2.8-3.4,3.5
				C954.2,164,953.3,164.2,952.5,164.2z M952.5,152.4c-0.7,0-1.4,0.1-2.1,0.4c-1.3,0.6-2.4,1.6-2.9,3c-0.5,1.3-0.5,2.8,0,4.1
				c0.6,1.3,1.6,2.4,3,2.9l0,0c1.3,0.5,2.8,0.5,4.1,0c1.3-0.6,2.4-1.6,2.9-3c1.1-2.8-0.2-5.9-3-7
				C953.8,152.5,953.1,152.4,952.5,152.4z"/>
			<path style="fill:#4DDEFF;" d="M890.3,261.3c-0.8,0-1.6-0.2-2.4-0.5l0,0c-1.6-0.6-2.8-1.9-3.5-3.4c-0.7-1.6-0.7-3.3,0-4.9
				c0.6-1.6,1.9-2.8,3.4-3.5c1.6-0.7,3.3-0.7,4.9,0c1.6,0.6,2.8,1.9,3.5,3.4c0.7,1.6,0.7,3.3,0,4.9c-0.6,1.6-1.9,2.8-3.4,3.5
				C892,261.2,891.2,261.3,890.3,261.3z M890.3,249.5c-0.7,0-1.4,0.1-2.1,0.4c-1.3,0.6-2.4,1.6-2.9,3c-0.5,1.3-0.5,2.8,0,4.1
				c0.6,1.3,1.6,2.4,3,2.9l0,0c1.3,0.5,2.8,0.5,4.1,0c1.3-0.6,2.4-1.6,2.9-3c0.5-1.3,0.5-2.8,0-4.1c-0.6-1.3-1.6-2.4-3-2.9
				C891.7,249.7,891,249.5,890.3,249.5z"/>
			<path style="fill:#0044C2;" d="M1062,225.5c-0.5,0-1.1-0.1-1.6-0.3c-1.1-0.4-1.9-1.2-2.4-2.3s-0.5-2.2,0-3.3
				c0.9-2.2,3.4-3.3,5.6-2.4c1.1,0.4,1.9,1.2,2.4,2.3c0.5,1.1,0.5,2.2,0,3.3c-0.4,1.1-1.2,1.9-2.3,2.4
				C1063.1,225.4,1062.6,225.5,1062,225.5z M1062,217.9c-1.3,0-2.6,0.8-3.1,2.1c-0.3,0.8-0.3,1.7,0,2.5c0.3,0.8,1,1.4,1.8,1.8l0,0
				c0.8,0.3,1.7,0.3,2.5,0c0.8-0.3,1.4-1,1.8-1.8c0.3-0.8,0.3-1.7,0-2.5c-0.3-0.8-1-1.4-1.8-1.8C1062.8,218,1062.4,217.9,1062,217.9
				z"/>
			<path style="fill:#4DDEFF;" d="M1073.8,122c-0.5,0-1.1-0.1-1.6-0.3c-2.2-0.9-3.3-3.4-2.4-5.6c0.9-2.2,3.4-3.3,5.6-2.4
				c2.2,0.9,3.3,3.4,2.4,5.6C1077.2,121,1075.5,122,1073.8,122z M1073.8,114.4c-1.3,0-2.6,0.8-3.1,2.1c-0.7,1.7,0.1,3.6,1.8,4.3l0,0
				c1.7,0.7,3.6-0.1,4.3-1.8c0.7-1.7-0.1-3.6-1.8-4.3C1074.7,114.5,1074.3,114.4,1073.8,114.4z"/>
			<path style="fill:#4DDEFF;" d="M952.1,194.8c-0.5,0-1.1-0.1-1.6-0.3l0,0c-1.1-0.4-1.9-1.2-2.4-2.3c-0.5-1.1-0.5-2.2,0-3.3
				c0.4-1.1,1.2-1.9,2.3-2.4c1.1-0.5,2.2-0.5,3.3,0c2.2,0.9,3.3,3.4,2.4,5.6c-0.4,1.1-1.2,1.9-2.3,2.4
				C953.2,194.7,952.6,194.8,952.1,194.8z M952.1,187.2c-0.4,0-0.9,0.1-1.3,0.3c-0.8,0.3-1.4,1-1.8,1.8c-0.3,0.8-0.3,1.7,0,2.5
				c0.3,0.8,1,1.4,1.8,1.8l0,0c0.8,0.3,1.7,0.3,2.5,0c0.8-0.3,1.4-1,1.8-1.8c0.7-1.7-0.1-3.6-1.8-4.3
				C952.9,187.3,952.5,187.2,952.1,187.2z"/>
			<path style="fill:#0044C2;" d="M960.5,216.2c-0.8,0-1.6-0.2-2.4-0.5l0,0c-1.6-0.6-2.8-1.9-3.5-3.4c-0.7-1.6-0.7-3.3,0-4.9
				c0.6-1.6,1.9-2.8,3.4-3.5c1.6-0.7,3.3-0.7,4.9,0c1.6,0.6,2.8,1.9,3.5,3.4c0.7,1.6,0.7,3.3,0,4.9c-0.6,1.6-1.9,2.8-3.4,3.5
				C962.2,216.1,961.3,216.2,960.5,216.2z M960.5,204.4c-0.7,0-1.4,0.1-2.1,0.4c-1.3,0.6-2.4,1.6-2.9,3c-0.5,1.3-0.5,2.8,0,4.1
				c0.6,1.3,1.6,2.4,3,2.9l0,0c1.3,0.5,2.8,0.5,4.1,0c1.3-0.6,2.4-1.6,2.9-3c0.5-1.3,0.5-2.8,0-4.1c-0.6-1.3-1.6-2.4-3-2.9
				C961.9,204.5,961.2,204.4,960.5,204.4z"/>
		</g>
		<g>
			
				<rect x="571" y="513.3" transform="matrix(0.8031 0.5959 -0.5959 0.8031 436.2985 -233.5582)" style="fill:#4DDEFF;" width="1" height="60.1"/>
			
				<rect x="517.2" y="496.2" transform="matrix(0.959 0.2834 -0.2834 0.959 163.3772 -135.9352)" style="fill:#4DDEFF;" width="68.6" height="1"/>
			
				<rect x="544" y="460" transform="matrix(0.2572 0.9664 -0.9664 0.2572 877.5662 -220.7123)" style="fill:#4DDEFF;" width="76.7" height="1"/>
			
				<rect x="625.5" y="472" transform="matrix(0.4912 0.8711 -0.8711 0.4912 748.2374 -294.2942)" style="fill:#4DDEFF;" width="1" height="42.7"/>
			
				<rect x="597.4" y="532.7" transform="matrix(0.5783 0.8158 -0.8158 0.5783 695.3992 -278.8819)" style="fill:#4DDEFF;" width="40.2" height="1"/>
			
				<rect x="675.8" y="514.4" transform="matrix(0.2909 0.9567 -0.9567 0.2909 1001.8107 -259.9647)" style="fill:#4DDEFF;" width="1" height="62.9"/>
			<path style="fill:#4DDEFF;" d="M635.1,573.1c-7,0-12.8-5.7-12.8-12.8c0-7,5.7-12.8,12.8-12.8c7,0,12.8,5.7,12.8,12.8
				C647.9,567.3,642.2,573.1,635.1,573.1z M635.1,548.5c-6.5,0-11.8,5.3-11.8,11.8c0,6.5,5.3,11.8,11.8,11.8
				c6.5,0,11.8-5.3,11.8-11.8C646.9,553.8,641.6,548.5,635.1,548.5z"/>
			<path style="fill:#00DD29;" d="M596.4,522.4c-7.3,0-13.3-5.9-13.3-13.3s5.9-13.3,13.3-13.3c7.3,0,13.3,5.9,13.3,13.3
				S603.7,522.4,596.4,522.4z M596.4,497.8c-6.2,0-11.3,5.1-11.3,11.3c0,6.2,5.1,11.3,11.3,11.3c6.2,0,11.3-5.1,11.3-11.3
				C607.6,502.9,602.6,497.8,596.4,497.8z"/>
			<path style="fill:#4DDEFF;" d="M709.8,539.5c-2.4,0-4.3-1.9-4.3-4.3s1.9-4.3,4.3-4.3c2.4,0,4.3,1.9,4.3,4.3
				S712.2,539.5,709.8,539.5z M709.8,531.9c-1.8,0-3.3,1.5-3.3,3.3c0,1.8,1.5,3.3,3.3,3.3c1.8,0,3.3-1.5,3.3-3.3
				C713.1,533.4,711.7,531.9,709.8,531.9z"/>
			<path style="fill:#4DDEFF;" d="M571.5,424.1c-2.4,0-4.3-1.9-4.3-4.3c0-2.4,1.9-4.3,4.3-4.3s4.3,1.9,4.3,4.3
				C575.8,422.1,573.9,424.1,571.5,424.1z M571.5,416.5c-1.8,0-3.3,1.5-3.3,3.3c0,1.8,1.5,3.3,3.3,3.3s3.3-1.5,3.3-3.3
				C574.8,417.9,573.3,416.5,571.5,416.5z"/>
			<path style="fill:#0044C2;" d="M647.5,484.7c-2.4,0-4.3-1.9-4.3-4.3c0-2.4,1.9-4.3,4.3-4.3c2.4,0,4.3,1.9,4.3,4.3
				C651.8,482.8,649.9,484.7,647.5,484.7z M647.5,477.1c-1.8,0-3.3,1.5-3.3,3.3c0,1.8,1.5,3.3,3.3,3.3c1.8,0,3.3-1.5,3.3-3.3
				C650.8,478.6,649.4,477.1,647.5,477.1z"/>
			<path style="fill:#4DDEFF;" d="M514.8,491.3c-2.4,0-4.3-1.9-4.3-4.3c0-2.4,1.9-4.3,4.3-4.3c2.4,0,4.3,1.9,4.3,4.3
				C519.1,489.4,517.2,491.3,514.8,491.3z M514.8,483.7c-1.8,0-3.3,1.5-3.3,3.3c0,1.8,1.5,3.3,3.3,3.3c1.8,0,3.3-1.5,3.3-3.3
				C518.1,485.2,516.6,483.7,514.8,483.7z"/>
			<path style="fill:#4DDEFF;" d="M551.8,575.1c-2.4,0-4.3-1.9-4.3-4.3c0-2.4,1.9-4.3,4.3-4.3c2.4,0,4.3,1.9,4.3,4.3
				C556.1,573.1,554.2,575.1,551.8,575.1z M551.8,567.5c-1.8,0-3.3,1.5-3.3,3.3c0,1.8,1.5,3.3,3.3,3.3c1.8,0,3.3-1.5,3.3-3.3
				C555.1,568.9,553.6,567.5,551.8,567.5z"/>
		</g>
		<g>
			
				<rect x="895.9" y="89.9" transform="matrix(0.9753 0.2209 -0.2209 0.9753 48.6268 -195.0218)" style="fill:#4DDEFF;" width="1" height="60.1"/>
			
				<rect x="911" y="139.4" transform="matrix(0.4492 0.8934 -0.8934 0.4492 638.5933 -730.1701)" style="fill:#4DDEFF;" width="1" height="26.8"/>
			
				<rect x="886.6" y="182.8" transform="matrix(0.5459 0.8379 -0.8379 0.5459 562.0424 -670.4084)" style="fill:#4DDEFF;" width="25.8" height="1"/>
			
				<rect x="875.9" y="169.9" transform="matrix(0.908 0.4189 -0.4189 0.908 154.9473 -350.8101)" style="fill:#4DDEFF;" width="1" height="15.1"/>
			
				<rect x="838.3" y="147.2" transform="matrix(0.8589 0.5122 -0.5122 0.8589 196.8002 -418.8155)" style="fill:#4DDEFF;" width="40.2" height="1"/>
			
				<rect x="785.8" y="129.7" transform="matrix(0.999 4.458890e-002 -4.458890e-002 0.999 6.6024 -35.6475)" style="fill:#4DDEFF;" width="33.2" height="1"/>
			<path style="fill:#4DDEFF;" d="M831.3,142.9c-1.6,0-3.1-0.3-4.6-0.9c-3.2-1.2-5.7-3.6-7.1-6.7l0,0c-1.4-3.1-1.5-6.6-0.2-9.8
				c1.2-3.2,3.6-5.7,6.7-7.1c6.4-2.8,14,0.1,16.8,6.5c2.8,6.4-0.1,14-6.5,16.8C834.8,142.5,833.1,142.9,831.3,142.9z M820.6,134.9
				c1.3,2.9,3.6,5.1,6.5,6.2c2.9,1.1,6.1,1.1,9-0.2c5.9-2.6,8.6-9.6,6-15.5c-2.6-5.9-9.6-8.6-15.5-6c-2.9,1.3-5.1,3.6-6.2,6.5
				C819.2,128.8,819.3,132,820.6,134.9L820.6,134.9z"/>
			<path style="fill:#4DDEFF;" d="M782,133.4c-0.5,0-1-0.1-1.6-0.3c-1.1-0.4-1.9-1.2-2.4-2.3c-0.5-1.1-0.5-2.2-0.1-3.3
				c0.4-1.1,1.2-1.9,2.3-2.4c2.2-1,4.7,0,5.7,2.2c0.5,1.1,0.5,2.2,0.1,3.3c-0.4,1.1-1.2,1.9-2.3,2.4
				C783.2,133.3,782.6,133.4,782,133.4z M782,125.8c-0.4,0-0.9,0.1-1.3,0.3c-0.8,0.4-1.4,1-1.7,1.8c-0.3,0.8-0.3,1.7,0.1,2.5l0,0
				c0.4,0.8,1,1.4,1.8,1.7c0.8,0.3,1.7,0.3,2.5-0.1c1.7-0.7,2.4-2.7,1.7-4.4C784.5,126.5,783.3,125.8,782,125.8z"/>
			<path style="fill:#4DDEFF;" d="M908.5,201.2c-0.5,0-1.1-0.1-1.6-0.3c-1.1-0.4-1.9-1.2-2.4-2.3c-0.5-1.1-0.5-2.2-0.1-3.3
				c0.4-1.1,1.2-1.9,2.3-2.4c1.1-0.5,2.2-0.5,3.3-0.1c1.1,0.4,1.9,1.2,2.4,2.3c0.5,1.1,0.5,2.2,0.1,3.3c-0.4,1.1-1.2,1.9-2.3,2.4
				C909.7,201.1,909.1,201.2,908.5,201.2z M908.5,193.6c-0.5,0-0.9,0.1-1.3,0.3c-0.8,0.4-1.4,1-1.7,1.8c-0.3,0.8-0.3,1.7,0.1,2.5
				l0,0c0.4,0.8,1,1.4,1.8,1.7c0.8,0.3,1.7,0.3,2.5-0.1c0.8-0.4,1.4-1,1.7-1.8c0.3-0.8,0.3-1.7-0.1-2.5c-0.4-0.8-1-1.4-1.8-1.7
				C909.3,193.6,908.9,193.6,908.5,193.6z"/>
			<path style="fill:#4DDEFF;" d="M927,149.6c-0.5,0-1.1-0.1-1.6-0.3c-1.1-0.4-1.9-1.2-2.4-2.3c-0.5-1.1-0.5-2.2-0.1-3.3
				c0.4-1.1,1.2-1.9,2.3-2.4c2.2-1,4.7,0,5.7,2.2c1,2.2,0,4.7-2.2,5.7C928.2,149.5,927.6,149.6,927,149.6z M927,142
				c-0.4,0-0.9,0.1-1.3,0.3c-0.8,0.4-1.4,1-1.7,1.8c-0.3,0.8-0.3,1.7,0.1,2.5l0,0c0.4,0.8,1,1.4,1.8,1.7c0.8,0.3,1.7,0.3,2.5-0.1
				c1.7-0.7,2.4-2.7,1.7-4.4C929.5,142.7,928.3,142,927,142z"/>
			<path style="fill:#4DDEFF;" d="M903.3,91.1c-1.7,0-3.2-1-3.9-2.6l0,0c-0.5-1.1-0.5-2.2-0.1-3.3c0.4-1.1,1.2-1.9,2.3-2.4
				c1.1-0.5,2.2-0.5,3.3-0.1c1.1,0.4,1.9,1.2,2.4,2.3c0.5,1.1,0.5,2.2,0.1,3.3c-0.4,1.1-1.2,1.9-2.3,2.4
				C904.5,91,903.9,91.1,903.3,91.1z M900.3,88.2c0.7,1.7,2.7,2.4,4.4,1.7c0.8-0.4,1.4-1,1.7-1.8c0.3-0.8,0.3-1.7-0.1-2.5
				c-0.4-0.8-1-1.4-1.8-1.7c-0.8-0.3-1.7-0.3-2.5,0.1C900.3,84.6,899.6,86.5,900.3,88.2L900.3,88.2z"/>
			<path style="fill:#DEDEDE;" d="M887.5,174.5c-1.6,0-3.2-0.3-4.8-0.9c-3.3-1.3-5.9-3.8-7.3-7c-3-6.7,0.1-14.5,6.8-17.5
				c6.7-3,14.5,0.1,17.5,6.8c1.4,3.2,1.5,6.8,0.2,10.1c-1.3,3.3-3.8,5.9-7,7.3C891.1,174.2,889.3,174.5,887.5,174.5z M887.5,150
				c-1.5,0-3.1,0.3-4.5,1c-5.7,2.5-8.3,9.2-5.7,14.9c1.2,2.8,3.4,4.9,6.2,5.9c2.8,1.1,5.9,1,8.6-0.2c2.8-1.2,4.9-3.4,5.9-6.2
				c1.1-2.8,1-5.9-0.2-8.6C895.9,152.5,891.8,150,887.5,150z"/>
			<path style="fill:#0044C2;" d="M871.5,192c-1.7,0-3.2-1-3.9-2.6l0,0c-1-2.2,0-4.7,2.2-5.7c1.1-0.5,2.2-0.5,3.3-0.1
				c1.1,0.4,1.9,1.2,2.4,2.3c0.5,1.1,0.5,2.2,0.1,3.3c-0.4,1.1-1.2,1.9-2.3,2.4C872.7,191.9,872.1,192,871.5,192z M868.5,189
				c0.7,1.7,2.7,2.4,4.4,1.7c0.8-0.4,1.4-1,1.7-1.8c0.3-0.8,0.3-1.7-0.1-2.5c-0.4-0.8-1-1.4-1.8-1.7c-0.8-0.3-1.7-0.3-2.5,0.1
				C868.5,185.4,867.7,187.4,868.5,189L868.5,189z"/>
		</g>
		<g>
			
				<rect x="324.7" y="261.2" transform="matrix(0.9954 9.540121e-002 -9.540121e-002 0.9954 30.1144 -29.6973)" style="fill:#0051E8;" width="1.9" height="77.8"/>
			
				<rect x="209.6" y="360.8" transform="matrix(0.8817 0.4718 -0.4718 0.8817 198.0691 -66.353)" style="fill:#0051E8;" width="43.6" height="1.9"/>
			
				<rect x="324.4" y="378.7" transform="matrix(0.8878 0.4603 -0.4603 0.8878 215.8123 -125.8384)" style="fill:#0051E8;" width="83.1" height="1.9"/>
			
				<rect x="444.1" y="329.2" transform="matrix(0.8193 0.5734 -0.5734 0.8193 289.311 -189.3888)" style="fill:#0051E8;" width="1.9" height="70.2"/>
			
				<rect x="280.8" y="341.6" transform="matrix(0.3794 0.9252 -0.9252 0.3794 512.3889 -34.2318)" style="fill:#0051E8;" width="1.9" height="46.6"/>
			
				<rect x="213.8" y="363.9" transform="matrix(0.7554 0.6553 -0.6553 0.7554 329.4042 -37.4057)" style="fill:#0051E8;" width="1.9" height="117.2"/>
			
				<rect x="471.2" y="343.3" transform="matrix(0.9745 0.2242 -0.2242 0.9745 90.5235 -108.6709)" style="fill:#0051E8;" width="105" height="1.9"/>
			
				<rect x="400.4" y="286" transform="matrix(0.4515 0.8923 -0.8923 0.4515 500.2044 -239.9039)" style="fill:#0051E8;" width="89.7" height="1.9"/>
			
				<rect x="624.6" y="267" transform="matrix(0.7006 0.7136 -0.7136 0.7006 413.2261 -351.5896)" style="fill:#0051E8;" width="1.9" height="99.2"/>
			
				<rect x="396.6" y="438.3" transform="matrix(8.061671e-002 0.9967 -0.9967 8.061671e-002 821.9191 -12.4723)" style="fill:#0051E8;" width="42.2" height="1.9"/>
			
				<rect x="571.1" y="383.9" transform="matrix(0.3119 0.9501 -0.9501 0.3119 773.9739 -298.9601)" style="fill:#0051E8;" width="44.6" height="1.9"/>
			
				<rect x="246.2" y="401.6" transform="matrix(0.6126 0.7904 -0.7904 0.6126 425.9665 -63.9095)" style="fill:#0051E8;" width="64" height="1.9"/>
			<path style="fill:#E00040;" d="M201.8,357.9c-7.5,0-13.6-6.1-13.6-13.6c0-7.5,6.1-13.6,13.6-13.6c7.5,0,13.6,6.1,13.6,13.6
				C215.4,351.8,209.3,357.9,201.8,357.9z M201.8,332.7c-6.4,0-11.6,5.2-11.6,11.6c0,6.4,5.2,11.6,11.6,11.6
				c6.4,0,11.6-5.2,11.6-11.6C213.4,337.9,208.2,332.7,201.8,332.7z"/>
			<path style="fill:#0051E8;" d="M255.2,379.6c-3.3,0-5.9-2.6-5.9-5.9s2.6-5.9,5.9-5.9c3.3,0,5.9,2.6,5.9,5.9
				S258.5,379.6,255.2,379.6z M255.2,369.7c-2.2,0-4,1.8-4,4s1.8,4,4,4c2.2,0,4-1.8,4-4S257.4,369.7,255.2,369.7z"/>
			<path style="fill:#0051E8;" d="M467.8,337.2c-3.3,0-5.9-2.6-5.9-5.9s2.6-5.9,5.9-5.9s5.9,2.6,5.9,5.9S471,337.2,467.8,337.2z
				 M467.8,327.3c-2.2,0-4,1.8-4,4c0,2.2,1.8,4,4,4c2.2,0,4-1.8,4-4C471.7,329.1,470,327.3,467.8,327.3z"/>
			<path style="fill:#0051E8;" d="M165.7,495.8c-9.4,0-17-7.6-17-17c0-9.4,7.6-17,17-17c9.4,0,17,7.6,17,17
				C182.8,488.2,175.1,495.8,165.7,495.8z M165.7,463.7c-8.3,0-15.1,6.8-15.1,15.1c0,8.3,6.8,15.1,15.1,15.1
				c8.3,0,15.1-6.8,15.1-15.1C180.8,470.4,174.1,463.7,165.7,463.7z"/>
			<path style="fill:#0051E8;" d="M583.2,365.3c-5.1,0-9.3-4.2-9.3-9.3c0-5.1,4.2-9.3,9.3-9.3c5.1,0,9.3,4.2,9.3,9.3
				C592.5,361.1,588.4,365.3,583.2,365.3z M583.2,348.6c-4.1,0-7.4,3.3-7.4,7.4c0,4.1,3.3,7.4,7.4,7.4c4.1,0,7.4-3.3,7.4-7.4
				C590.6,351.9,587.3,348.6,583.2,348.6z"/>
			<path style="fill:#E00040;" d="M329.3,262.4c-5.1,0-9.3-4.2-9.3-9.3c0-5.1,4.2-9.3,9.3-9.3c5.1,0,9.3,4.2,9.3,9.3
				C338.7,258.2,334.5,262.4,329.3,262.4z M329.3,245.7c-4,0-7.3,3.3-7.3,7.3c0,4,3.3,7.3,7.3,7.3c4,0,7.3-3.3,7.3-7.3
				C336.7,249,333.4,245.7,329.3,245.7z"/>
			<path style="fill:#0051E8;" d="M419.4,478c-5.1,0-9.3-4.2-9.3-9.3c0-5.1,4.2-9.3,9.3-9.3c5.1,0,9.3,4.2,9.3,9.3
				C428.7,473.8,424.5,478,419.4,478z M419.4,461.3c-4.1,0-7.4,3.3-7.4,7.4c0,4.1,3.3,7.4,7.4,7.4c4.1,0,7.4-3.3,7.4-7.4
				C426.8,464.6,423.5,461.3,419.4,461.3z"/>
			<path style="fill:#0051E8;" d="M604.5,422.6c-5.1,0-9.3-4.2-9.3-9.3c0-5.1,4.2-9.3,9.3-9.3c5.1,0,9.3,4.2,9.3,9.3
				C613.8,418.4,609.7,422.6,604.5,422.6z M604.5,405.9c-4.1,0-7.4,3.3-7.4,7.4c0,4.1,3.3,7.4,7.4,7.4c4.1,0,7.4-3.3,7.4-7.4
				C611.9,409.2,608.6,405.9,604.5,405.9z"/>
			<path style="fill:#0051E8;" d="M540.8,315.4c-8.4,0-15.2-6.8-15.2-15.2c0-8.4,6.8-15.2,15.2-15.2s15.2,6.8,15.2,15.2
				C556.1,308.5,549.2,315.4,540.8,315.4z M540.8,286.8c-7.3,0-13.3,6-13.3,13.3c0,7.3,6,13.3,13.3,13.3c7.3,0,13.3-6,13.3-13.3
				C554.1,292.8,548.2,286.8,540.8,286.8z"/>
			<path style="fill:#0051E8;" d="M500.1,429.4c-6.2,0-11.2-5-11.2-11.2c0-6.2,5-11.2,11.2-11.2c6.2,0,11.2,5,11.2,11.2
				C511.3,424.4,506.3,429.4,500.1,429.4z M500.1,409c-5.1,0-9.3,4.2-9.3,9.3s4.2,9.3,9.3,9.3s9.3-4.2,9.3-9.3S505.2,409,500.1,409z
				"/>
			<path style="fill:#0051E8;" d="M580.5,181.2c-6.2,0-11.2-5-11.2-11.2c0-6.2,5-11.2,11.2-11.2c6.2,0,11.2,5,11.2,11.2
				C591.6,176.2,586.6,181.2,580.5,181.2z M580.5,160.8c-5.1,0-9.3,4.2-9.3,9.3s4.2,9.3,9.3,9.3s9.3-4.2,9.3-9.3
				S585.6,160.8,580.5,160.8z"/>
			<path style="fill:#0051E8;" d="M616.9,305.4c-6.2,0-11.2-5-11.2-11.2c0-6.2,5-11.2,11.2-11.2c6.2,0,11.2,5,11.2,11.2
				C628.1,300.4,623.1,305.4,616.9,305.4z M616.9,285c-5.1,0-9.3,4.2-9.3,9.3c0,5.1,4.2,9.3,9.3,9.3s9.3-4.2,9.3-9.3
				C626.2,289.1,622,285,616.9,285z"/>
			<path style="fill:#0051E8;" d="M484.8,372.7c-3.3,0-6.1-2.7-6.1-6.1s2.7-6.1,6.1-6.1s6.1,2.7,6.1,6.1S488.1,372.7,484.8,372.7z
				 M484.8,362.5c-2.3,0-4.2,1.9-4.2,4.2s1.9,4.2,4.2,4.2c2.3,0,4.2-1.9,4.2-4.2S487.1,362.5,484.8,362.5z"/>
			<path style="fill:#0051E8;" d="M324.2,474.2c-3.3,0-6.1-2.7-6.1-6.1s2.7-6.1,6.1-6.1s6.1,2.7,6.1,6.1S327.6,474.2,324.2,474.2z
				 M324.2,464c-2.3,0-4.2,1.9-4.2,4.2c0,2.3,1.9,4.2,4.2,4.2c2.3,0,4.2-1.9,4.2-4.2C328.4,465.9,326.5,464,324.2,464z"/>
			<path style="fill:#0051E8;" d="M77.5,355.1c-3.3,0-6.1-2.7-6.1-6.1c0-3.3,2.7-6.1,6.1-6.1c3.3,0,6.1,2.7,6.1,6.1
				C83.6,352.4,80.8,355.1,77.5,355.1z M77.5,344.9c-2.3,0-4.2,1.9-4.2,4.2c0,2.3,1.9,4.2,4.2,4.2c2.3,0,4.2-1.9,4.2-4.2
				C81.7,346.8,79.8,344.9,77.5,344.9z"/>
			<path style="fill:#0051E8;" d="M284.6,319.9c-1.8,0-3.2-1.5-3.2-3.2c0-1.8,1.5-3.2,3.2-3.2c1.8,0,3.2,1.5,3.2,3.2
				C287.8,318.5,286.3,319.9,284.6,319.9z M284.6,315.4c-0.7,0-1.3,0.6-1.3,1.3c0,0.7,0.6,1.3,1.3,1.3c0.7,0,1.3-0.6,1.3-1.3
				C285.9,316,285.3,315.4,284.6,315.4z"/>
			<path style="fill:#0051E8;" d="M554.6,237.1c-1.8,0-3.2-1.5-3.2-3.2c0-1.8,1.5-3.2,3.2-3.2c1.8,0,3.2,1.5,3.2,3.2
				C557.8,235.6,556.4,237.1,554.6,237.1z M554.6,232.5c-0.7,0-1.3,0.6-1.3,1.3c0,0.7,0.6,1.3,1.3,1.3s1.3-0.6,1.3-1.3
				C555.9,233.1,555.3,232.5,554.6,232.5z"/>
			<path style="fill:#0051E8;" d="M666.6,342c-1.8,0-3.2-1.5-3.2-3.2c0-1.8,1.5-3.2,3.2-3.2c1.8,0,3.2,1.5,3.2,3.2
				C669.9,340.6,668.4,342,666.6,342z M666.6,337.5c-0.7,0-1.3,0.6-1.3,1.3c0,0.7,0.6,1.3,1.3,1.3c0.7,0,1.3-0.6,1.3-1.3
				C668,338.1,667.4,337.5,666.6,337.5z"/>
			<path style="fill:#0051E8;" d="M650.1,230.8c-1.8,0-3.2-1.5-3.2-3.2c0-1.8,1.5-3.2,3.2-3.2c1.8,0,3.2,1.5,3.2,3.2
				C653.4,229.4,651.9,230.8,650.1,230.8z M650.1,226.3c-0.7,0-1.3,0.6-1.3,1.3c0,0.7,0.6,1.3,1.3,1.3c0.7,0,1.3-0.6,1.3-1.3
				C651.5,226.8,650.9,226.3,650.1,226.3z"/>
			<path style="fill:#0051E8;" d="M453.3,261.4c-1.8,0-3.2-1.5-3.2-3.2c0-1.8,1.5-3.2,3.2-3.2c1.8,0,3.2,1.5,3.2,3.2
				C456.5,259.9,455.1,261.4,453.3,261.4z M453.3,256.8c-0.7,0-1.3,0.6-1.3,1.3c0,0.7,0.6,1.3,1.3,1.3c0.7,0,1.3-0.6,1.3-1.3
				C454.6,257.4,454,256.8,453.3,256.8z"/>
			<path style="fill:#0051E8;" d="M355.2,161c-1.8,0-3.2-1.5-3.2-3.2c0-1.8,1.5-3.2,3.2-3.2c1.8,0,3.2,1.5,3.2,3.2
				C358.4,159.6,356.9,161,355.2,161z M355.2,156.5c-0.7,0-1.3,0.6-1.3,1.3c0,0.7,0.6,1.3,1.3,1.3c0.7,0,1.3-0.6,1.3-1.3
				C356.5,157,355.9,156.5,355.2,156.5z"/>
			<path style="fill:#0051E8;" d="M191,385.4c-1.8,0-3.2-1.5-3.2-3.2c0-1.8,1.5-3.2,3.2-3.2c1.8,0,3.2,1.5,3.2,3.2
				C194.3,384,192.8,385.4,191,385.4z M191,380.9c-0.7,0-1.3,0.6-1.3,1.3c0,0.7,0.6,1.3,1.3,1.3c0.7,0,1.3-0.6,1.3-1.3
				C192.4,381.5,191.8,380.9,191,380.9z"/>
			<path style="fill:#0051E8;" d="M397.3,355.5c-6.2,0-11.2-5-11.2-11.2c0-6.2,5-11.2,11.2-11.2c6.2,0,11.2,5,11.2,11.2
				C408.5,350.5,403.5,355.5,397.3,355.5z M397.3,335c-5.1,0-9.3,4.2-9.3,9.3c0,5.1,4.2,9.3,9.3,9.3c5.1,0,9.3-4.2,9.3-9.3
				C406.6,339.2,402.4,335,397.3,335z"/>
			<path style="fill:#FFC400;" d="M302.8,443.9c-5.1,0-9.3-4.2-9.3-9.3c0-5.1,4.2-9.3,9.3-9.3c5.1,0,9.3,4.2,9.3,9.3
				C312,439.7,307.9,443.9,302.8,443.9z M302.8,427.2c-4.1,0-7.4,3.3-7.4,7.4c0,4.1,3.3,7.4,7.4,7.4c4.1,0,7.4-3.3,7.4-7.4
				C310.1,430.5,306.8,427.2,302.8,427.2z"/>
			<path style="fill:#E00040;" d="M416,419.3c-8.4,0-15.2-6.8-15.2-15.2c0-8.4,6.8-15.2,15.2-15.2s15.2,6.8,15.2,15.2
				C431.2,412.4,424.4,419.3,416,419.3z M416,390.8c-7.3,0-13.2,5.9-13.2,13.2c0,7.3,5.9,13.2,13.2,13.2c7.3,0,13.2-5.9,13.2-13.2
				C429.2,396.7,423.3,390.8,416,390.8z"/>
			<path style="fill:#0051E8;" d="M317.2,367.7c-8.5,0-15.3-6.9-15.3-15.3c0-8.5,6.9-15.3,15.3-15.3c8.5,0,15.3,6.9,15.3,15.3
				C332.5,360.9,325.7,367.7,317.2,367.7z M317.2,339c-7.4,0-13.4,6-13.4,13.4c0,7.4,6,13.4,13.4,13.4c7.4,0,13.4-6,13.4-13.4
				C330.6,345,324.6,339,317.2,339z"/>
			<path style="fill:#FFC400;" d="M419.4,249c-8.4,0-15.2-6.8-15.2-15.2c0-8.4,6.8-15.2,15.2-15.2c8.4,0,15.2,6.8,15.2,15.2
				C434.6,242.2,427.8,249,419.4,249z M419.4,220.6c-7.3,0-13.3,5.9-13.3,13.3c0,7.3,5.9,13.3,13.3,13.3c7.3,0,13.3-5.9,13.3-13.3
				C432.7,226.5,426.7,220.6,419.4,220.6z"/>
			<path style="fill:#FFC400;" d="M668.6,285c-8.5,0-15.3-6.9-15.3-15.3c0-8.5,6.9-15.3,15.3-15.3c8.5,0,15.3,6.9,15.3,15.3
				C683.9,278.1,677,285,668.6,285z M668.6,256.2c-7.4,0-13.4,6-13.4,13.4c0,7.4,6,13.4,13.4,13.4c7.4,0,13.4-6,13.4-13.4
				C682,262.2,676,256.2,668.6,256.2z"/>
		</g>
		<g>
			
				<rect x="817.4" y="372" transform="matrix(0.9387 0.3449 -0.3449 0.9387 199.1427 -255.7171)" style="fill:#0051E8;" width="1.9" height="119.8"/>
			
				<rect x="838.5" y="400.1" transform="matrix(0.5313 0.8472 -0.8472 0.5313 748.1798 -550.3528)" style="fill:#0051E8;" width="65.9" height="1.9"/>
			
				<rect x="783.2" y="323" transform="matrix(0.1541 0.9881 -0.9881 0.1541 1028.3571 -462.1868)" style="fill:#0051E8;" width="1.9" height="93"/>
			
				<rect x="845" y="267.6" transform="matrix(0.9993 3.773067e-002 -3.773067e-002 0.9993 12.2161 -31.6995)" style="fill:#0051E8;" width="1.9" height="80.4"/>
			
				<rect x="896.3" y="439.5" transform="matrix(0.9921 0.1257 -0.1257 0.9921 62.9215 -115.9934)" style="fill:#0051E8;" width="108.2" height="1.9"/>
			
				<rect x="1042" y="364.8" transform="matrix(0.739 0.6737 -0.6737 0.739 548.8247 -595.4824)" style="fill:#0051E8;" width="1.9" height="91.7"/>
			
				<rect x="1099.2" y="369.2" transform="matrix(0.9971 7.658710e-002 -7.658710e-002 0.9971 31.6905 -86.0582)" style="fill:#0051E8;" width="77.4" height="1.9"/>
			
				<rect x="909.9" y="385.1" transform="matrix(0.768 0.6405 -0.6405 0.768 474.0796 -488.2021)" style="fill:#0051E8;" width="1.9" height="50.3"/>
			
				<rect x="992.7" y="481.2" transform="matrix(0.4945 0.8692 -0.8692 0.4945 938.8602 -649.9817)" style="fill:#0051E8;" width="71.1" height="1.9"/>
			
				<rect x="1013.3" y="337.9" transform="matrix(0.8498 0.5271 -0.5271 0.8498 335.7403 -500.4909)" style="fill:#0051E8;" width="65.5" height="1.9"/>
			
				<rect x="1097.6" y="267.7" transform="matrix(0.9453 0.3262 -0.3262 0.9453 161.4848 -341.343)" style="fill:#0051E8;" width="1.9" height="86.3"/>
			<path style="fill:#FFC400;" d="M793.7,502.5c-4.6,0-8.3-3.7-8.3-8.3c0-4.6,3.7-8.3,8.3-8.3c4.6,0,8.3,3.7,8.3,8.3
				C802,498.8,798.3,502.5,793.7,502.5z M793.7,487.9c-3.5,0-6.3,2.8-6.3,6.3c0,3.5,2.8,6.3,6.3,6.3c3.5,0,6.3-2.8,6.3-6.3
				C800,490.7,797.2,487.9,793.7,487.9z"/>
			<path style="fill:#0051E8;" d="M847.5,268.6c-4.6,0-8.3-3.7-8.3-8.3c0-4.6,3.7-8.3,8.3-8.3c4.6,0,8.3,3.7,8.3,8.3
				C855.7,264.9,852,268.6,847.5,268.6z M847.5,254c-3.5,0-6.3,2.8-6.3,6.3c0,3.5,2.8,6.3,6.3,6.3c3.5,0,6.3-2.8,6.3-6.3
				C853.8,256.8,851,254,847.5,254z"/>
			<path style="fill:#0051E8;" d="M930.5,392.7c-4.6,0-8.3-3.7-8.3-8.3c0-4.6,3.7-8.3,8.3-8.3c4.6,0,8.3,3.7,8.3,8.3
				C938.7,389,935,392.7,930.5,392.7z M930.5,378.1c-3.5,0-6.3,2.8-6.3,6.3c0,3.5,2.8,6.3,6.3,6.3c3.5,0,6.3-2.8,6.3-6.3
				C936.8,381,934,378.1,930.5,378.1z"/>
			<path style="fill:#0051E8;" d="M1012.1,325.9c-4.6,0-8.3-3.7-8.3-8.3c0-4.6,3.7-8.3,8.3-8.3c4.6,0,8.3,3.7,8.3,8.3
				C1020.4,322.2,1016.7,325.9,1012.1,325.9z M1012.1,311.3c-3.5,0-6.3,2.8-6.3,6.3c0,3.5,2.8,6.3,6.3,6.3c3.5,0,6.3-2.8,6.3-6.3
				C1018.4,314.1,1015.6,311.3,1012.1,311.3z"/>
			<path style="fill:#0051E8;" d="M1180.1,377.7c-2.5,0-4.6-2.1-4.6-4.6c0-2.5,2.1-4.6,4.6-4.6s4.6,2.1,4.6,4.6
				C1184.7,375.7,1182.6,377.7,1180.1,377.7z M1180.1,370.4c-1.5,0-2.7,1.2-2.7,2.7c0,1.5,1.2,2.7,2.7,2.7s2.7-1.2,2.7-2.7
				C1182.8,371.6,1181.6,370.4,1180.1,370.4z"/>
			<path style="fill:#0051E8;" d="M1055.2,549.1c-10.9,0-19.7-8.9-19.7-19.7c0-10.9,8.9-19.7,19.7-19.7c10.9,0,19.7,8.9,19.7,19.7
				C1074.9,540.2,1066,549.1,1055.2,549.1z M1055.2,511.5c-9.8,0-17.8,8-17.8,17.8c0,9.8,8,17.8,17.8,17.8c9.8,0,17.8-8,17.8-17.8
				C1073,519.5,1065,511.5,1055.2,511.5z"/>
			<path style="fill:#E00040;" d="M844.5,377.7c-8.5,0-15.4-6.9-15.4-15.4c0-8.5,6.9-15.4,15.4-15.4c8.5,0,15.4,6.9,15.4,15.4
				C859.8,370.8,852.9,377.7,844.5,377.7z M844.5,349c-7.4,0-13.4,6-13.4,13.4c0,7.4,6,13.4,13.4,13.4c7.4,0,13.4-6,13.4-13.4
				C857.8,355,851.8,349,844.5,349z"/>
			<path style="fill:#0051E8;" d="M724,394.7c-8.5,0-15.3-6.9-15.3-15.3c0-8.5,6.9-15.3,15.3-15.3c8.5,0,15.3,6.9,15.3,15.3
				C739.4,387.9,732.5,394.7,724,394.7z M724,366c-7.4,0-13.4,6-13.4,13.4c0,7.4,6,13.4,13.4,13.4c7.4,0,13.4-6,13.4-13.4
				C737.5,372,731.4,366,724,366z"/>
			<path style="fill:#0051E8;" d="M891.4,439.9c-3.4,0-6.3-2.8-6.3-6.3c0-3.4,2.8-6.3,6.3-6.3c3.4,0,6.3,2.8,6.3,6.3
				C897.7,437.1,894.9,439.9,891.4,439.9z M891.4,429.3c-2.4,0-4.3,1.9-4.3,4.3c0,2.4,1.9,4.3,4.3,4.3s4.3-1.9,4.3-4.3
				C895.8,431.3,893.8,429.3,891.4,429.3z"/>
			<path style="fill:#0051E8;" d="M1008.6,452.8c-3,0-5.5-2.5-5.5-5.5c0-3,2.5-5.5,5.5-5.5c3,0,5.5,2.5,5.5,5.5
				C1014,450.3,1011.6,452.8,1008.6,452.8z M1008.6,443.7c-2,0-3.6,1.6-3.6,3.6c0,2,1.6,3.6,3.6,3.6c2,0,3.6-1.6,3.6-3.6
				C1012.1,445.3,1010.5,443.7,1008.6,443.7z"/>
			<path style="fill:#0051E8;" d="M775.6,336.1c-6.2,0-11.2-5-11.2-11.2c0-6.2,5-11.2,11.2-11.2c6.2,0,11.2,5,11.2,11.2
				C786.8,331.1,781.8,336.1,775.6,336.1z M775.6,315.7c-5.1,0-9.3,4.2-9.3,9.3s4.2,9.3,9.3,9.3c5.1,0,9.3-4.2,9.3-9.3
				S780.7,315.7,775.6,315.7z"/>
			<path style="fill:#FFC400;" d="M973.4,420.8c-6.2,0-11.2-5-11.2-11.2c0-6.2,5-11.2,11.2-11.2c6.2,0,11.2,5,11.2,11.2
				C984.5,415.8,979.5,420.8,973.4,420.8z M973.4,400.4c-5.1,0-9.3,4.2-9.3,9.3s4.2,9.3,9.3,9.3s9.3-4.2,9.3-9.3
				S978.5,400.4,973.4,400.4z"/>
			<path style="fill:#0051E8;" d="M801,402.2c-3.3,0-6.1-2.7-6.1-6.1s2.7-6.1,6.1-6.1s6.1,2.7,6.1,6.1S804.4,402.2,801,402.2z
				 M801,392c-2.3,0-4.2,1.9-4.2,4.2c0,2.3,1.9,4.2,4.2,4.2c2.3,0,4.2-1.9,4.2-4.2C805.2,393.9,803.3,392,801,392z"/>
			<path style="fill:#0051E8;" d="M917.1,341.2c-3.3,0-6.1-2.7-6.1-6.1c0-3.3,2.7-6.1,6.1-6.1s6.1,2.7,6.1,6.1
				C923.2,338.5,920.5,341.2,917.1,341.2z M917.1,331c-2.3,0-4.2,1.9-4.2,4.2c0,2.3,1.9,4.2,4.2,4.2c2.3,0,4.2-1.9,4.2-4.2
				C921.3,332.9,919.4,331,917.1,331z"/>
			<path style="fill:#0051E8;" d="M1137.9,347c-3.3,0-6.1-2.7-6.1-6.1c0-3.3,2.7-6.1,6.1-6.1s6.1,2.7,6.1,6.1
				C1143.9,344.2,1141.2,347,1137.9,347z M1137.9,336.7c-2.3,0-4.2,1.9-4.2,4.2c0,2.3,1.9,4.2,4.2,4.2c2.3,0,4.2-1.9,4.2-4.2
				C1142,338.6,1140.1,336.7,1137.9,336.7z"/>
			<path style="fill:#0051E8;" d="M772.1,194.5c-3.3,0-6.1-2.7-6.1-6.1s2.7-6.1,6.1-6.1s6.1,2.7,6.1,6.1S775.4,194.5,772.1,194.5z
				 M772.1,184.3c-2.3,0-4.2,1.9-4.2,4.2c0,2.3,1.9,4.2,4.2,4.2c2.3,0,4.2-1.9,4.2-4.2C776.3,186.1,774.4,184.3,772.1,184.3z"/>
			<path style="fill:#0051E8;" d="M1214.8,339c-1.8,0-3.2-1.5-3.2-3.2c0-1.8,1.5-3.2,3.2-3.2s3.2,1.5,3.2,3.2
				C1218,337.5,1216.6,339,1214.8,339z M1214.8,334.4c-0.7,0-1.3,0.6-1.3,1.3c0,0.7,0.6,1.3,1.3,1.3s1.3-0.6,1.3-1.3
				C1216.1,335,1215.5,334.4,1214.8,334.4z"/>
			<path style="fill:#0051E8;" d="M832.3,482.3c-1.8,0-3.2-1.5-3.2-3.2c0-1.8,1.5-3.2,3.2-3.2c1.8,0,3.2,1.5,3.2,3.2
				C835.6,480.8,834.1,482.3,832.3,482.3z M832.3,477.7c-0.7,0-1.3,0.6-1.3,1.3c0,0.7,0.6,1.3,1.3,1.3c0.7,0,1.3-0.6,1.3-1.3
				C833.7,478.3,833.1,477.7,832.3,477.7z"/>
			<path style="fill:#0051E8;" d="M721,490.2c-1.8,0-3.2-1.5-3.2-3.2s1.5-3.2,3.2-3.2c1.8,0,3.2,1.5,3.2,3.2S722.8,490.2,721,490.2z
				 M721,485.6c-0.7,0-1.3,0.6-1.3,1.3c0,0.7,0.6,1.3,1.3,1.3c0.7,0,1.3-0.6,1.3-1.3C722.4,486.2,721.8,485.6,721,485.6z"/>
			<path style="fill:#E00040;" d="M1084.5,382.2c-8.7,0-15.8-7.1-15.8-15.8c0-8.7,7.1-15.8,15.8-15.8c8.7,0,15.8,7.1,15.8,15.8
				C1100.3,375.1,1093.2,382.2,1084.5,382.2z M1084.5,352.6c-7.6,0-13.8,6.2-13.8,13.8c0,7.6,6.2,13.8,13.8,13.8
				c7.6,0,13.8-6.2,13.8-13.8C1098.3,358.8,1092.1,352.6,1084.5,352.6z"/>
			<path style="fill:#E00040;" d="M1115.7,271.8c-4.6,0-8.3-3.7-8.3-8.3s3.7-8.3,8.3-8.3s8.3,3.7,8.3,8.3S1120.3,271.8,1115.7,271.8
				z M1115.7,257.1c-3.5,0-6.3,2.8-6.3,6.3c0,3.5,2.8,6.3,6.3,6.3s6.3-2.8,6.3-6.3C1122,260,1119.2,257.1,1115.7,257.1z"/>
		</g>
	</g>
</g>
</svg>
