<?xml version="1.0" encoding="utf-8"?>
<!-- Generator: Adobe Illustrator 18.0.0, SVG Export Plug-In . SVG Version: 6.00 Build 0)  -->
<!DOCTYPE svg PUBLIC "-//W3C//DTD SVG 1.1//EN" "http://www.w3.org/Graphics/SVG/1.1/DTD/svg11.dtd">
<svg version="1.1" xmlns="http://www.w3.org/2000/svg" xmlns:xlink="http://www.w3.org/1999/xlink" x="0px" y="0px"
	 viewBox="0 0 3709.5 888.9" style="enable-background:new 0 0 3709.5 888.9;" xml:space="preserve">
<g id="Layer_1">
	<radialGradient id="XMLID_11_" cx="466.8623" cy="-4.3257" r="1785.2384" gradientUnits="userSpaceOnUse">
		<stop  offset="0" style="stop-color:#94C029"/>
		<stop  offset="1" style="stop-color:#568233"/>
	</radialGradient>
	<path id="XMLID_566_" style="fill:url(#XMLID_11_);" d="M444.5,0C199,0,0,199,0,444.5s199,444.5,444.5,444.5s444.5-199,444.5-444.5
		S690,0,444.5,0z M532.4,414.1c29.5-52.4,89.8-55.6,142.5-70.4c26.3-7.4,62-20.9,66.4-44.4c17.7,67.4,2.9,138-72.6,181.2
		c-58.5,33.5-89.7,24.3-121,78.7c21.3-58,52.2-113.9,99.5-152.5c-55.5,30.1-90.1,70.9-110.3,136.9c0,0-8.6-27.2-12.4-48.5
		C518.8,463.6,519.5,436.9,532.4,414.1z M533.6,818.7c0.4-8.6,0.6-17.2,0.4-25.8c156.9-39.6,273-181.6,273-350.8
		c0-199.9-162-361.9-361.9-361.9S83.4,242.2,83.4,442.1c0,199.9,162,361.9,361.9,361.9c9.8,0,19.6-0.4,29.2-1.2
		c4.3-18.8,7.3-38.6,8.8-60.5c4.9-73.9-3-153.6-68-206.8c-28.9-23.7-70.5-43.8-102.3-63.3c-80.4-49.5-122.3-154.1-98.2-245.3
		c6,31.8,54.3,50.1,89.9,60.1c71.4,20.1,153,24.5,192.9,95.4c17.4,30.9,18.4,67,10.7,109.8c-5.2,28.9-16.8,65.6-16.8,65.6
		c-29.5-80.7-78.1-141.1-149.3-185.3c74.9,61.1,119.5,154.4,148.3,246.7c18,57.8,24.8,120,16.9,179.7c-1.1,8.7-2.6,17.4-4.4,25.9
		c-11.6,1.7-23.3,2.9-35.2,3.6c-7.4,0.4-14.8,0.7-22.4,0.7c-213.6,0-386.8-173.2-386.8-386.8c0-213.6,173.2-386.8,386.8-386.8
		S832,228.5,832,442.1C832,625.3,704.6,778.7,533.6,818.7z"/>
</g>
<g id="Layer_2">
	<g>
	</g>
	<g>
		<path style="fill:#5579B5;" d="M1161,498.4h-111v-45.5L1157.5,309h55.3v147h24.5v42.4h-24.5V547H1161V498.4z M1161,456V371
			l-61.3,85.1H1161z"/>
		<path style="fill:#5579B5;" d="M1266.3,470.7v-83.7c0-54.3,30.5-82.3,88.6-82.3c55,0,81.2,25.2,82.6,69.3h-49.7
			c-1.4-14.4-11.6-25.6-33.6-25.6c-24.5,0-36.1,13.7-36.1,40.6v23.5c13.3-13.3,29.8-19.3,51.1-19.3c45.2,0,70,27,70,76.7
			c0,53.2-28.4,81.2-86.1,81.2C1296.4,551.2,1266.3,523.9,1266.3,470.7z M1387.4,471.4c0-22.4-10.2-34.3-31.2-34.3
			c-17.9,0-30.5,8.8-38.2,26.3v5.3c0,25.6,11.9,38.9,35.4,38.9C1376.6,507.5,1387.4,494.5,1387.4,471.4z"/>
		<path style="fill:#5579B5;" d="M1466.2,391.6v-39.9c0-30.8,18.6-46.9,53.2-46.9s53.2,16.1,53.2,46.9v39.9
			c0,30.8-18.6,46.9-53.2,46.9S1466.2,422.4,1466.2,391.6z M1645.7,304.8h36.8L1540,551.2h-37.1L1645.7,304.8z M1535.5,389.9v-36.8
			c0-11.9-5.3-17.5-16.1-17.5s-16.1,5.6-16.1,17.5v36.8c0,12.3,5.3,17.9,16.1,17.9S1535.5,402.1,1535.5,389.9z M1612.8,504.3v-39.9
			c0-30.8,18.6-46.9,53.2-46.9c34.7,0,53.2,16.1,53.2,46.9v39.9c0,30.8-18.6,46.9-53.2,46.9C1631.4,551.2,1612.8,535.1,1612.8,504.3
			z M1682.1,502.6v-36.8c0-11.9-5.3-17.5-16.1-17.5c-10.8,0-16.1,5.6-16.1,17.5v36.8c0,12.3,5.3,17.9,16.1,17.9
			C1676.9,520.4,1682.1,514.8,1682.1,502.6z"/>
	</g>
</g>
<g id="Layer_3">
	<g>
		<path d="M1835.4,394.3h17.5l0.9,22.4c6.1-17,17-24.7,34.5-24.7h8.2v20.3h-6.1c-19.6,0-30.5,10-34.5,33.1v69.2h-20.5V394.3z"/>
		<path d="M1912.3,466.4v-23.8c0-33.1,18-51.1,50.8-51.1s50.8,18,50.8,51.1v17.5h-81.1v5.4c0,23.5,9.8,34.3,31.2,34.3
			c18.2,0,27.7-7.9,29.1-21h19.8c-1.6,25.6-19.6,38.7-48.5,38.7C1930.7,517.4,1912.3,499.5,1912.3,466.4z M1994.1,443.1
			c0-23.1-9.6-33.8-30.5-33.8c-21.2,0-30.8,10.7-30.8,33.8H1994.1z"/>
		<path d="M2046.1,394.3h17.5l0.7,18.9c10.5-14.9,23.3-21.7,40.1-21.7c25.2,0,37.8,15.2,37.8,44.1v79h-20.5v-77.2
			c0-18.9-7-27-21.2-27s-25.2,8.4-33.8,26.1v78.1h-20.5V394.3z"/>
		<path d="M2173,466.4v-23.8c0-33.1,18-51.1,50.8-51.1s50.8,18,50.8,51.1v17.5h-81.1v5.4c0,23.5,9.8,34.3,31.2,34.3
			c18.2,0,27.7-7.9,29.1-21h19.8c-1.6,25.6-19.6,38.7-48.5,38.7C2191.4,517.4,2173,499.5,2173,466.4z M2254.8,443.1
			c0-23.1-9.6-33.8-30.5-33.8c-21.2,0-30.8,10.7-30.8,33.8H2254.8z"/>
		<path d="M2288.8,394.3h21.7l27.3,93.3l28.9-93.3h20.3l29.1,93.7l27.3-93.7h21l-37.5,120.3h-21.9l-28.2-90.7l-28.4,90.7h-21.9
			L2288.8,394.3z"/>
		<path d="M2476.1,480.6c0-24,15.9-37.5,49.7-37.5h28.9v-6.5c0-18.7-8.6-27.3-27.3-27.3c-17,0-27,7-27.7,21.7h-20.1
			c2.1-26.1,18.4-39.4,48.5-39.4c31.7,0,47.1,14.7,47.1,44.5v78.6h-17.5l-0.7-16.3c-9.8,12.4-23.3,19.1-40.8,19.1
			C2491.4,517.4,2476.1,504.2,2476.1,480.6z M2554.6,477.1v-17h-28.2c-21,0-29.8,6.5-29.8,20.1c0,12.6,7.5,19.6,22.6,19.6
			C2535.3,499.7,2547.4,491.8,2554.6,477.1z"/>
		<path d="M2629.5,495.5l-0.7,19.1h-17.5V344.4h20.5v65.8c9.8-12.8,22.2-18.7,38.2-18.7c28,0,44.3,17.3,44.3,50.1v25.6
			c0,32.9-16.3,50.1-44.3,50.1C2652.6,517.4,2639.7,510.7,2629.5,495.5z M2693.8,466.6v-24.2c0-21.5-9.8-32.9-26.3-32.9
			c-15.4,0-27.7,10-35.7,27.3v35.4c7.9,17.3,20.5,27.3,35.7,27.3C2684,499.5,2693.8,488.1,2693.8,466.6z"/>
		<path d="M2747,344.4h20.5v170.2H2747V344.4z"/>
		<path d="M2800.1,466.4v-23.8c0-33.1,18-51.1,50.8-51.1s50.8,18,50.8,51.1v17.5h-81.1v5.4c0,23.5,9.8,34.3,31.2,34.3
			c18.2,0,27.7-7.9,29.1-21h19.8c-1.6,25.6-19.6,38.7-48.5,38.7C2818.5,517.4,2800.1,499.5,2800.1,466.4z M2882,443.1
			c0-23.1-9.6-33.8-30.5-33.8c-21.2,0-30.8,10.7-30.8,33.8H2882z"/>
	</g>
</g>
<g id="_x3C_Layer_x3E_">
	<g>
		<path d="M2990.3,466.4v-23.8c0-33.1,18-51.1,50.8-51.1s50.8,18,50.8,51.1v17.5h-81.1v5.4c0,23.5,9.8,34.3,31.2,34.3
			c18.2,0,27.7-7.9,29.1-21h19.8c-1.6,25.6-19.6,38.7-48.5,38.7C3008.7,517.4,2990.3,499.5,2990.3,466.4z M3072.1,443.1
			c0-23.1-9.6-33.8-30.5-33.8c-21.2,0-30.8,10.7-30.8,33.8H3072.1z"/>
		<path d="M3124.1,394.3h17.5l0.7,18.9c10.5-14.9,23.3-21.7,40.1-21.7c25.2,0,37.8,15.2,37.8,44.1v79h-20.5v-77.2
			c0-18.9-7-27-21.2-27s-25.2,8.4-33.8,26.1v78.1h-20.5V394.3z"/>
		<path d="M3251,466.4v-23.8c0-33.1,18-51.1,50.8-51.1s50.8,18,50.8,51.1v17.5h-81.1v5.4c0,23.5,9.8,34.3,31.2,34.3
			c18.2,0,27.7-7.9,29.1-21h19.8c-1.6,25.6-19.6,38.7-48.5,38.7C3269.4,517.4,3251,499.5,3251,466.4z M3332.8,443.1
			c0-23.1-9.6-33.8-30.5-33.8c-21.2,0-30.8,10.7-30.8,33.8H3332.8z"/>
		<path d="M3384.8,394.3h17.5l0.9,22.4c6.1-17,17-24.7,34.5-24.7h8.2v20.3h-6.1c-19.6,0-30.5,10-34.5,33.1v69.2h-20.5V394.3z"/>
		<path d="M3464.3,522.6h19.1c1.2,14,12.6,19.6,29.4,19.6c21.5,0,31.2-9.1,31.2-30.1v-19.8c-9.8,12.6-21.9,18.4-38,18.4
			c-28,0-44.3-17.3-44.3-50.1v-18.9c0-32.9,16.3-50.1,44.3-50.1c17.3,0,30.1,6.8,40.1,21.5l0.9-18.7h17.5v117.7
			c0,31.9-17,47.8-51.3,47.8C3482.7,559.9,3465.9,547.3,3464.3,522.6z M3544,465.9v-29.6c-7.9-17-20.3-26.8-35.4-26.8
			c-16.6,0-26.3,11.4-26.3,32.9v17.5c0,21.5,9.8,32.9,26.3,32.9C3523.7,492.7,3536.1,482.9,3544,465.9z"/>
		<path d="M3597.4,539.4h10.3c9.3,0,13.3-2.8,16.6-12.6l5.6-16.8l-43.4-115.6h21.9l31.9,88.8l29.6-88.8h21l-47.1,134.8
			c-7.5,21.2-15.9,28-34.3,28h-12.1V539.4z"/>
	</g>
</g>
</svg>
